<svg width="23" height="23" viewBox="0 0 23 23" fill="none" xmlns="http://www.w3.org/2000/svg">
<path d="M11.5001 17.25L7.12294 11.0687C6.40648 10.2228 5.94509 9.19077 5.7925 8.09276C5.63992 6.99475 5.80243 5.87599 6.2611 4.86677C6.71976 3.85755 7.45572 2.9994 8.38324 2.39228C9.31077 1.78516 10.3917 1.45404 11.5001 1.4375C13.0366 1.45268 14.5045 2.07618 15.5822 3.17142C16.66 4.26667 17.2597 5.74439 17.2501 7.28094C17.2507 8.62136 16.7944 9.92194 15.9564 10.9681L11.5001 17.25ZM11.5001 2.875C10.3443 2.88827 9.24093 3.35971 8.43237 4.18579C7.62381 5.01187 7.17613 6.12506 7.18763 7.28094C7.19244 8.33594 7.57201 9.35489 8.25857 10.1559L11.5001 14.7488L14.8279 10.0625C15.4605 9.27291 15.8075 8.29265 15.8126 7.28094C15.8241 6.12506 15.3765 5.01187 14.5679 4.18579C13.7593 3.35971 12.656 2.88827 11.5001 2.875Z" fill="#404040"/>
<path d="M11.5 7.90625C12.2939 7.90625 12.9375 7.26266 12.9375 6.46875C12.9375 5.67484 12.2939 5.03125 11.5 5.03125C10.7061 5.03125 10.0625 5.67484 10.0625 6.46875C10.0625 7.26266 10.7061 7.90625 11.5 7.90625Z" fill="#404040"/>
<path d="M20.125 8.625H18.6875V10.0625H20.125V20.125H2.875V10.0625H4.3125V8.625H2.875C2.49375 8.625 2.12812 8.77645 1.85853 9.04603C1.58895 9.31562 1.4375 9.68125 1.4375 10.0625V20.125C1.4375 20.5062 1.58895 20.8719 1.85853 21.1415C2.12812 21.411 2.49375 21.5625 2.875 21.5625H20.125C20.5062 21.5625 20.8719 21.411 21.1415 21.1415C21.411 20.8719 21.5625 20.5062 21.5625 20.125V10.0625C21.5625 9.68125 21.411 9.31562 21.1415 9.04603C20.8719 8.77645 20.5062 8.625 20.125 8.625Z" fill="#404040"/>
</svg>
