<svg width="21" height="21" viewBox="0 0 21 21" fill="none" xmlns="http://www.w3.org/2000/svg">
<path d="M10.5 6.90625C11.2939 6.90625 11.9375 6.26266 11.9375 5.46875C11.9375 4.67484 11.2939 4.03125 10.5 4.03125C9.70609 4.03125 9.0625 4.67484 9.0625 5.46875C9.0625 6.26266 9.70609 6.90625 10.5 6.90625Z" fill="white"/>
<path d="M10.4996 16.25L6.12246 10.0687C5.40599 9.22283 4.9446 8.19077 4.79202 7.09276C4.63943 5.99475 4.80194 4.87599 5.26061 3.86677C5.71928 2.85755 6.45523 1.9994 7.38276 1.39228C8.31028 0.785158 9.39121 0.454044 10.4996 0.4375C12.0361 0.452684 13.504 1.07618 14.5817 2.17142C15.6595 3.26667 16.2592 4.74439 16.2496 6.28094C16.2502 7.62136 15.7939 8.92194 14.9559 9.96813L10.4996 16.25ZM10.4996 1.875C9.34379 1.88827 8.24044 2.35971 7.43188 3.18579C6.62332 4.01187 6.17564 5.12506 6.18714 6.28094C6.19196 7.33593 6.57152 8.35489 7.25808 9.15594L10.4996 13.7488L13.8275 9.0625C14.46 8.27291 14.807 7.29265 14.8121 6.28094C14.8236 5.12506 14.376 4.01187 13.5674 3.18579C12.7588 2.35971 11.6555 1.88827 10.4996 1.875V1.875Z" fill="white"/>
<path d="M19.125 7.625H17.6875V9.0625H19.125V19.125H1.875V9.0625H3.3125V7.625H1.875C1.49375 7.625 1.12812 7.77645 0.858534 8.04603C0.58895 8.31562 0.4375 8.68125 0.4375 9.0625V19.125C0.4375 19.5062 0.58895 19.8719 0.858534 20.1415C1.12812 20.411 1.49375 20.5625 1.875 20.5625H19.125C19.5062 20.5625 19.8719 20.411 20.1415 20.1415C20.411 19.8719 20.5625 19.5062 20.5625 19.125V9.0625C20.5625 8.68125 20.411 8.31562 20.1415 8.04603C19.8719 7.77645 19.5062 7.625 19.125 7.625Z" fill="white"/>
</svg>
