<svg width="16" height="16" viewBox="0 0 16 16" fill="none" xmlns="http://www.w3.org/2000/svg">
<path d="M14.286 7.9818H14.2693L12.946 4.95C12.8223 4.6673 12.6209 4.42713 12.366 4.25854C12.1112 4.08994 11.8138 4.00014 11.5098 4H4.4908C4.18689 4.00016 3.88953 4.08997 3.63469 4.25857C3.37985 4.42716 3.17844 4.66732 3.05481 4.95L1.73134 7.9818H1.71461C1.43686 7.98212 1.17058 8.0946 0.974177 8.29457C0.777778 8.49454 0.667304 8.76567 0.666992 9.04847V12.7818C0.667304 13.0646 0.777778 13.3357 0.974177 13.5357C1.17058 13.7357 1.43686 13.8482 1.71461 13.8485V15.2C1.71485 15.4121 1.79771 15.6154 1.94501 15.7654C2.09231 15.9154 2.29202 15.9998 2.50033 16H4.33366C4.54197 15.9998 4.74168 15.9154 4.88897 15.7654C5.03627 15.6154 5.11913 15.4121 5.11937 15.2V13.8485H10.8813V15.2C10.8815 15.4121 10.9644 15.6154 11.1117 15.7654C11.259 15.9154 11.4587 15.9998 11.667 16H13.5003C13.7086 15.9998 13.9083 15.9154 14.0556 15.7654C14.2029 15.6154 14.2858 15.4121 14.286 15.2V13.8485C14.5638 13.8482 14.8301 13.7357 15.0265 13.5357C15.2229 13.3357 15.3333 13.0646 15.3337 12.7818V9.04847C15.3333 8.76567 15.2229 8.49454 15.0265 8.29457C14.8301 8.0946 14.5638 7.98212 14.286 7.9818ZM4.01201 5.38333C4.05322 5.28908 4.12038 5.20901 4.20535 5.15281C4.29032 5.09661 4.38947 5.06669 4.4908 5.06667H11.5098C11.6112 5.06672 11.7103 5.09666 11.7952 5.15285C11.8802 5.20905 11.9473 5.28911 11.9885 5.38333L13.1228 7.98177H2.87776L4.01201 5.38333ZM4.07175 14.9333H2.76223V13.8485H4.07175V14.9333ZM13.2384 14.9333H11.9289V13.8485H13.2384V14.9333ZM14.286 12.7818H1.71461V9.04847H14.286V12.7818Z" fill="#49C0FF"/>
<path d="M2.66667 10.2829H5.33333V11.3333H2.66667V10.2829ZM10.6667 10.2829H13.3333V11.3333H10.6667V10.2829ZM8 0L0 3.16333V4.29531L8 1.13201L16 4.29531V3.16333L8 0Z" fill="#49C0FF"/>
</svg>
