<svg width="22" height="21" viewBox="0 0 22 21" fill="none" xmlns="http://www.w3.org/2000/svg">
<path d="M8.24995 20.0264L7.84995 16.8264C7.63329 16.743 7.42928 16.643 7.23795 16.5264C7.04595 16.4097 6.85828 16.2847 6.67495 16.1514L3.69995 17.4014L0.949951 12.6514L3.52495 10.7014C3.50828 10.5847 3.49995 10.472 3.49995 10.3634C3.49995 10.2554 3.49995 10.143 3.49995 10.0264C3.49995 9.9097 3.49995 9.79703 3.49995 9.68837C3.49995 9.58037 3.50828 9.46803 3.52495 9.35137L0.949951 7.40137L3.69995 2.65137L6.67495 3.90137C6.85828 3.76803 7.04995 3.64303 7.24995 3.52637C7.44995 3.4097 7.64995 3.3097 7.84995 3.22637L8.24995 0.0263672H13.75L14.15 3.22637C14.3666 3.3097 14.571 3.4097 14.763 3.52637C14.9543 3.64303 15.1416 3.76803 15.325 3.90137L18.2999 2.65137L21.0499 7.40137L18.475 9.35137C18.4916 9.46803 18.5 9.58037 18.5 9.68837C18.5 9.79703 18.5 9.9097 18.5 10.0264C18.5 10.143 18.5 10.2554 18.5 10.3634C18.5 10.472 18.4833 10.5847 18.45 10.7014L21.025 12.6514L18.275 17.4014L15.325 16.1514C15.1416 16.2847 14.95 16.4097 14.75 16.5264C14.55 16.643 14.35 16.743 14.15 16.8264L13.75 20.0264H8.24995ZM11.05 13.5264C12.0166 13.5264 12.8416 13.1847 13.525 12.5014C14.2083 11.818 14.55 10.993 14.55 10.0264C14.55 9.0597 14.2083 8.2347 13.525 7.55137C12.8416 6.86803 12.0166 6.52637 11.05 6.52637C10.0666 6.52637 9.23728 6.86803 8.56195 7.55137C7.88729 8.2347 7.54995 9.0597 7.54995 10.0264C7.54995 10.993 7.88729 11.818 8.56195 12.5014C9.23728 13.1847 10.0666 13.5264 11.05 13.5264ZM11.05 11.5264C10.6333 11.5264 10.2793 11.3804 9.98795 11.0884C9.69595 10.797 9.54995 10.443 9.54995 10.0264C9.54995 9.6097 9.69595 9.2557 9.98795 8.96437C10.2793 8.67237 10.6333 8.52637 11.05 8.52637C11.4666 8.52637 11.821 8.67237 12.113 8.96437C12.4043 9.2557 12.55 9.6097 12.55 10.0264C12.55 10.443 12.4043 10.797 12.113 11.0884C11.821 11.3804 11.4666 11.5264 11.05 11.5264ZM9.99995 18.0264H11.975L12.325 15.3764C12.8416 15.243 13.321 15.047 13.763 14.7884C14.2043 14.5304 14.6083 14.218 14.975 13.8514L17.45 14.8764L18.4249 13.1764L16.275 11.5514C16.3583 11.318 16.4166 11.072 16.45 10.8134C16.4833 10.5554 16.5 10.293 16.5 10.0264C16.5 9.7597 16.4833 9.49703 16.45 9.23837C16.4166 8.98037 16.3583 8.7347 16.275 8.50137L18.4249 6.87637L17.45 5.17637L14.975 6.22637C14.6083 5.84303 14.2043 5.52203 13.763 5.26337C13.321 5.00537 12.8416 4.8097 12.325 4.67637L12 2.02637H10.025L9.67495 4.67637C9.15829 4.8097 8.67928 5.00537 8.23795 5.26337C7.79595 5.52203 7.39162 5.8347 7.02495 6.20137L4.54995 5.17637L3.57495 6.87637L5.72495 8.47637C5.64162 8.72637 5.58328 8.97637 5.54995 9.22637C5.51662 9.47637 5.49995 9.74303 5.49995 10.0264C5.49995 10.293 5.51662 10.5514 5.54995 10.8014C5.58328 11.0514 5.64162 11.3014 5.72495 11.5514L3.57495 13.1764L4.54995 14.8764L7.02495 13.8264C7.39162 14.2097 7.79595 14.5304 8.23795 14.7884C8.67928 15.047 9.15829 15.243 9.67495 15.3764L9.99995 18.0264Z" fill="#444444"/>
</svg>
