<svg width="10" height="11" viewBox="0 0 10 11" fill="none" xmlns="http://www.w3.org/2000/svg">
<path d="M0.383789 10.5583V8.67257H9.87952V10.5583H0.383789ZM1.33336 7.72972V5.96188L5.63018 1.6955L7.41063 3.46334L3.11381 7.72972H1.33336ZM2.28293 6.78687H2.71024L6.08123 3.46334L5.63018 3.01549L2.28293 6.36259V6.78687ZM7.94476 2.94477L6.16431 1.17693L7.01893 0.32837C7.10597 0.234086 7.21676 0.188829 7.35128 0.1926C7.4858 0.196686 7.59659 0.241943 7.68363 0.32837L8.79938 1.43622C8.88642 1.52264 8.92994 1.63076 8.92994 1.76056C8.92994 1.89004 8.88642 2.00192 8.79938 2.09621L7.94476 2.94477Z" fill="#49C0FF"/>
</svg>
