<svg width="26" height="26" viewBox="0 0 26 26" fill="none" xmlns="http://www.w3.org/2000/svg">
<path d="M12.1096 26V23.774C9.39878 23.497 7.14307 22.4581 5.34247 20.6575C3.54186 18.8569 2.50304 16.6012 2.22603 13.8904H0V12.1096H2.22603C2.50304 9.39878 3.54186 7.14307 5.34247 5.34247C7.14307 3.54186 9.39878 2.50304 12.1096 2.22603V0H13.8904V2.22603C16.6012 2.50304 18.8569 3.54186 20.6575 5.34247C22.4581 7.14307 23.497 9.39878 23.774 12.1096H26V13.8904H23.774C23.497 16.6012 22.4581 18.8569 20.6575 20.6575C18.8569 22.4581 16.6012 23.497 13.8904 23.774V26H12.1096ZM13 22.0228C15.4734 22.0228 17.5955 21.1374 19.3664 19.3664C21.1374 17.5955 22.0228 15.4734 22.0228 13C22.0228 10.5266 21.1374 8.40449 19.3664 6.63356C17.5955 4.86263 15.4734 3.97717 13 3.97717C10.5266 3.97717 8.40449 4.86263 6.63356 6.63356C4.86263 8.40449 3.97717 10.5266 3.97717 13C3.97717 15.4734 4.86263 17.5955 6.63356 19.3664C8.40449 21.1374 10.5266 22.0228 13 22.0228ZM13 17.4521C11.7534 17.4521 10.6998 17.0217 9.83904 16.161C8.97831 15.3002 8.54794 14.2466 8.54794 13C8.54794 11.7534 8.97831 10.6998 9.83904 9.83904C10.6998 8.97831 11.7534 8.54794 13 8.54794C14.2466 8.54794 15.3002 8.97831 16.161 9.83904C17.0217 10.6998 17.4521 11.7534 17.4521 13C17.4521 14.2466 17.0217 15.3002 16.161 16.161C15.3002 17.0217 14.2466 17.4521 13 17.4521ZM13 15.6712C13.7519 15.6712 14.3851 15.414 14.8995 14.8995C15.414 14.3851 15.6712 13.7519 15.6712 13C15.6712 12.2481 15.414 11.6149 14.8995 11.1005C14.3851 10.586 13.7519 10.3288 13 10.3288C12.2481 10.3288 11.6149 10.586 11.1005 11.1005C10.586 11.6149 10.3288 12.2481 10.3288 13C10.3288 13.7519 10.586 14.3851 11.1005 14.8995C11.6149 15.414 12.2481 15.6712 13 15.6712Z" fill="#49C0FF"/>
</svg>
