<svg width="272" height="272" viewBox="0 0 272 272" fill="none" xmlns="http://www.w3.org/2000/svg">
<path d="M151.47 251.36C142.091 246.921 138.354 236.367 137.032 226.537C136.809 224.905 136.341 223.208 136.875 221.641C137.408 220.075 139.051 218.796 140.628 219.237C141.939 219.601 142.706 220.918 143.582 221.957C144.747 223.359 146.287 224.4 148.021 224.96C149.153 225.324 150.496 225.438 151.427 224.699C152.699 223.681 152.515 221.712 152.253 220.091C151.72 217.084 151.198 214.078 150.687 211.071C150.318 209.467 150.21 207.814 150.366 206.175C150.605 204.543 151.481 202.911 152.95 202.237C154.419 201.562 156.48 202.112 157.073 203.646C157.248 204.305 157.379 204.976 157.465 205.653C157.623 206.322 158.063 207.013 158.732 207.095C159.402 207.176 159.984 206.605 160.392 206.045C161.784 204.125 162.568 201.823 163.275 199.544C163.982 197.265 164.646 194.942 165.864 192.896C167.083 190.851 168.943 189.088 171.244 188.544C173.546 188 176.266 189.034 177.228 191.215C178.191 193.397 177.261 195.948 176.14 198.048C174.439 201.157 172.297 204.005 169.781 206.502C169.279 206.901 168.918 207.45 168.748 208.069C168.579 209.211 169.787 210.114 170.924 210.288C172.196 210.484 173.491 210.136 174.78 210.07C176.07 210.005 177.533 210.332 178.219 211.447C179.16 212.992 178.066 214.966 176.897 216.343C174.547 219.085 171.745 221.403 168.612 223.197C167.491 223.834 166.299 224.432 165.478 225.433C164.657 226.434 164.325 227.99 165.097 229.034C165.87 230.079 167.431 230.193 168.639 229.747C169.846 229.301 170.853 228.436 171.968 227.789C174.057 226.57 176.962 226.233 178.719 227.919C179.267 228.509 179.671 229.218 179.898 229.99C180.126 230.762 180.171 231.576 180.03 232.369C179.741 233.948 179.136 235.452 178.251 236.792C175.434 241.635 171.383 245.644 166.512 248.412C161.643 251.077 156.932 252.377 151.476 251.365" fill="#F5F5F5"/>
<path d="M152.955 244.799C153.677 239.201 154.719 233.648 156.078 228.169L157.122 223.855C157.465 222.436 157.808 221.032 158.21 219.683C159.024 217.094 159.979 214.551 161.072 212.067C162.1 209.684 163.161 207.454 164.167 205.381C165.173 203.309 166.158 201.394 167.126 199.691C168.638 196.99 170.362 194.414 172.283 191.988C172.963 191.128 173.513 190.481 173.888 190.046C174.068 189.839 174.215 189.676 174.318 189.551C174.421 189.426 174.47 189.388 174.476 189.393C174.436 189.456 174.393 189.516 174.345 189.573L173.932 190.084C173.573 190.53 173.04 191.172 172.376 192.059C170.497 194.509 168.804 197.097 167.311 199.8C166.359 201.508 165.391 203.423 164.39 205.495C163.389 207.568 162.345 209.799 161.327 212.181C160.244 214.666 159.3 217.208 158.498 219.797C158.08 221.141 157.742 222.517 157.41 223.953L156.366 228.273C155.01 233.74 153.963 239.28 153.227 244.865" fill="#E0E0E0"/>
<path d="M158.303 219.661C158.185 219.45 158.092 219.225 158.026 218.992C157.863 218.563 157.65 217.904 157.4 217.137C156.9 215.56 156.279 213.357 155.605 210.93C154.93 208.504 154.283 206.312 153.755 204.75C153.494 203.967 153.277 203.331 153.124 202.901C153.033 202.677 152.962 202.446 152.912 202.21C153.043 202.413 153.151 202.63 153.233 202.857C153.423 203.276 153.668 203.902 153.957 204.674C154.539 206.23 155.219 208.412 155.899 210.849C156.579 213.286 157.15 215.418 157.607 217.072C157.819 217.823 157.993 218.454 158.151 218.96C158.222 219.189 158.273 219.424 158.303 219.661Z" fill="#E0E0E0"/>
<path d="M178.513 212.23C178.251 212.34 177.977 212.422 177.697 212.475C177.153 212.611 176.408 212.807 175.472 213.079C173.596 213.623 171.033 214.428 168.243 215.462C165.452 216.495 162.966 217.545 161.171 218.35C160.279 218.748 159.566 219.09 159.071 219.324C158.822 219.46 158.562 219.573 158.293 219.662C158.518 219.488 158.76 219.339 159.016 219.215C159.495 218.949 160.197 218.579 161.078 218.127C162.835 217.268 165.316 216.185 168.112 215.146C170.499 214.253 172.93 213.485 175.396 212.845C176.343 212.595 177.115 212.432 177.654 212.328C177.937 212.269 178.225 212.236 178.513 212.23Z" fill="#E0E0E0"/>
<path d="M153.147 244.381C153.077 244.31 153.015 244.231 152.962 244.147L152.478 243.456C152.059 242.847 151.477 241.96 150.775 240.85C149.361 238.631 147.511 235.503 145.514 232.021C143.518 228.54 141.706 225.401 140.33 223.159L138.698 220.499L138.263 219.776C138.205 219.696 138.16 219.608 138.127 219.515C138.127 219.515 138.198 219.585 138.312 219.743C138.426 219.901 138.606 220.157 138.796 220.439C139.215 221.043 139.797 221.93 140.504 223.045C141.913 225.265 143.768 228.387 145.765 231.869C147.761 235.35 149.573 238.489 150.944 240.736L152.576 243.391C152.75 243.679 152.897 243.935 153.011 244.114C153.069 244.196 153.115 244.286 153.147 244.381Z" fill="#E0E0E0"/>
<path d="M179.357 230.754C179.28 230.821 179.194 230.876 179.101 230.917L178.345 231.32L175.538 232.783C173.166 234.023 169.913 235.77 166.322 237.679C162.732 239.588 159.463 241.335 157.074 242.521C155.878 243.114 154.898 243.609 154.224 243.897L153.408 244.256C153.318 244.303 153.223 244.34 153.125 244.365C153.203 244.3 153.289 244.245 153.381 244.202L154.142 243.799L156.949 242.33C159.316 241.095 162.569 239.349 166.159 237.434C169.75 235.519 173.025 233.784 175.407 232.598C176.604 232.005 177.583 231.51 178.258 231.222L179.041 230.863C179.14 230.81 179.247 230.774 179.357 230.754Z" fill="#E0E0E0"/>
<path d="M83.4486 134.591C83.4486 134.591 76.9859 135.488 80.6144 149.643C84.2429 163.798 87.3219 171.098 87.3219 171.098C87.3219 171.098 87.8061 174.303 85.2221 174.205C82.6381 174.107 77.3667 172.029 75.577 174.798C73.7274 177.692 75.3485 181.173 79.385 184.824C83.4214 188.474 92.0275 196.792 92.8 197.548C93.5725 198.304 94.1382 199.86 92.3648 200.072C90.5914 200.284 78.0141 198.81 77.6768 204.821C77.3395 210.832 90.303 219.144 91.7011 220.08C93.0992 221.016 93.3331 221.745 93.0067 222.561C92.6803 223.377 88.5133 222.479 84.9174 222.202C81.3216 221.924 77.1002 222.245 77.1926 225.727C77.2851 229.208 84.096 238.021 103.952 244.571L113.358 247.003L120.305 240.159C134.285 224.606 135.814 213.579 134.166 210.511C132.517 207.443 128.726 209.265 125.712 211.289C122.698 213.313 119.543 216.185 118.868 215.641C118.194 215.097 118.02 214.346 118.771 212.84C119.521 211.333 126.642 197.678 123.356 192.63C120.071 187.582 109.887 195.1 108.255 195.791C106.623 196.481 106.329 194.839 106.623 193.816C106.917 192.793 110.235 181.304 111.943 176.109C113.652 170.913 113.325 167.095 110.279 165.506C107.341 163.977 103.811 168.416 101.613 169.787C99.415 171.158 98.2509 168.155 98.2509 168.155C98.2509 168.155 97.2934 160.295 93.4093 146.205C89.5251 132.115 83.329 134.64 83.329 134.64" fill="#EBEBEB"/>
<path d="M113.353 249.342C110.54 239.006 105.846 220.51 101.738 204.63C97.6312 188.751 93.8994 174.433 91.1359 164.064C89.7541 158.885 88.6335 154.697 87.8719 151.786C87.4911 150.345 87.1919 149.218 86.9852 148.446L86.7567 147.576C86.7077 147.38 86.6914 147.276 86.6914 147.276C86.6914 147.276 86.7295 147.369 86.7893 147.565C86.8492 147.761 86.9308 148.06 87.0396 148.43C87.2626 149.202 87.5836 150.317 87.9861 151.753C88.8021 154.642 89.9554 158.825 91.3589 164.004C94.1714 174.34 97.9413 188.707 102.049 204.554C106.156 220.401 110.812 238.913 113.576 249.282" fill="#E0E0E0"/>
<path d="M82.834 178.029C83.0513 178.119 83.259 178.23 83.4541 178.361C83.8404 178.59 84.3953 178.938 85.0861 179.373C86.4407 180.249 88.2849 181.505 90.2922 182.925L95.4167 186.581L96.978 187.669C97.1749 187.791 97.3573 187.936 97.522 188.099C97.3025 188.01 97.0929 187.899 96.8964 187.767C96.5101 187.538 95.9553 187.19 95.2644 186.75C93.9207 185.863 92.0929 184.574 90.0855 183.159L84.9338 179.542L83.3671 178.454C83.1748 178.332 82.996 178.189 82.834 178.029Z" fill="#E0E0E0"/>
<path d="M98.3121 187.647C98.2413 187.603 100.662 183.692 103.714 178.91C106.766 174.129 109.306 170.288 109.377 170.331C109.448 170.375 107.027 174.292 103.97 179.074C100.912 183.855 98.3828 187.68 98.3121 187.647Z" fill="#E0E0E0"/>
<path d="M103.523 212.28C103.674 212.092 103.848 211.924 104.04 211.779L105.504 210.495C106.738 209.407 108.441 207.906 110.258 206.176C112.075 204.446 113.674 202.83 114.817 201.65C115.361 201.106 115.807 200.622 116.171 200.252C116.336 200.069 116.518 199.904 116.715 199.757C116.595 199.965 116.449 200.157 116.28 200.328C115.986 200.682 115.546 201.182 114.991 201.791C113.903 203.015 112.314 204.664 110.487 206.394C108.659 208.124 106.94 209.614 105.667 210.659C105.025 211.203 104.503 211.594 104.133 211.872C103.945 212.03 103.741 212.167 103.523 212.28Z" fill="#E0E0E0"/>
<path d="M87.6113 206.66C87.8309 206.686 88.0465 206.739 88.2532 206.818L89.9777 207.362C91.4248 207.824 93.4212 208.483 95.619 209.222C97.8168 209.962 99.8024 210.659 101.233 211.175L102.925 211.796C103.136 211.861 103.338 211.951 103.529 212.062C103.309 212.04 103.093 211.989 102.887 211.91L101.162 211.366C99.7153 210.903 97.7188 210.245 95.5211 209.5C93.3233 208.755 91.3377 208.064 89.907 207.552L88.2152 206.927C88.0028 206.865 87.7997 206.776 87.6113 206.66Z" fill="#E0E0E0"/>
<path d="M89.4492 228.991C89.7291 229.033 90.0043 229.102 90.2707 229.198L92.4793 229.872C94.3398 230.455 96.902 231.276 99.7308 232.206C102.56 233.136 105.111 233.985 106.955 234.622L109.131 235.383C109.402 235.47 109.666 235.577 109.92 235.704C109.638 235.663 109.361 235.594 109.093 235.497L106.884 234.823C105.024 234.241 102.462 233.419 99.6329 232.489C96.8041 231.559 94.2527 230.705 92.414 230.074L90.238 229.307C89.9661 229.226 89.7021 229.12 89.4492 228.991Z" fill="#E0E0E0"/>
<path d="M109.475 235.405C109.666 235.17 109.879 234.953 110.111 234.757L111.912 233.065C113.429 231.635 115.518 229.649 117.765 227.392C120.012 225.134 121.997 223.04 123.423 221.516L125.109 219.71C125.308 219.48 125.524 219.265 125.757 219.068C125.598 219.324 125.416 219.565 125.213 219.786C124.843 220.238 124.288 220.874 123.581 221.658C122.193 223.225 120.235 225.346 117.977 227.604C115.72 229.861 113.625 231.831 112.059 233.223C111.275 233.914 110.639 234.474 110.187 234.855C109.965 235.058 109.727 235.242 109.475 235.405Z" fill="#E0E0E0"/>
<path d="M55.3793 50.1782L50.0698 48.5462C50.0698 48.5462 48.6772 53.007 44.0205 51.6415C43.119 51.3933 42.317 50.8709 41.7254 50.1468C41.1338 49.4226 40.7819 48.5325 40.7185 47.5996C40.6488 46.8129 40.7679 46.0209 41.0659 45.2895C41.364 44.5581 41.8323 43.9084 42.4321 43.3945C43.7975 42.1868 46.1911 41.4524 49.5693 43.1986L53.3066 31.2306L48.057 29.5986L45.881 36.6108C45.881 36.6108 37.9169 36.2137 35.3873 44.3247C32.9665 52.0876 39.3639 56.0642 42.345 56.9945C44.6081 57.7017 52.5559 59.573 55.3793 50.1782Z" fill="#F5F5F5"/>
<path d="M48.7676 27.1079L54.0957 28.7705L55.6481 23.7956L50.32 22.133L48.7676 27.1079Z" fill="#F5F5F5"/>
<path d="M70.0293 36.6653L72.1564 36.1213C72.0914 35.8798 72.0757 35.6276 72.1102 35.3799C72.1446 35.1321 72.2286 34.8938 72.357 34.6792C72.4854 34.4645 72.6556 34.2778 72.8576 34.1303C73.0595 33.9827 73.2891 33.8773 73.5327 33.8202C73.8871 33.7132 74.2659 33.7191 74.6168 33.8371C74.9677 33.955 75.2733 34.1792 75.4911 34.4785C75.676 34.727 75.7995 35.0157 75.8515 35.3211C75.9035 35.6265 75.8825 35.9399 75.7903 36.2356C75.589 36.9265 74.9416 37.6772 73.4402 37.8023L74.7077 42.5949L76.8076 42.0509L76.0677 39.2439C76.864 38.7636 77.4802 38.0347 77.8214 37.1696C78.1625 36.3045 78.2096 35.3512 77.9554 34.4567C77.1394 31.345 74.1474 31.3613 72.9669 31.6714C72.053 31.8836 69.0012 32.9226 70.0293 36.6653Z" fill="#EBEBEB"/>
<path d="M77.5486 42.75L75.4062 43.3242L75.9423 45.3241L78.0847 44.7499L77.5486 42.75Z" fill="#EBEBEB"/>
<path d="M245.637 91.7234L247.704 92.4686C247.791 92.2346 247.923 92.0202 248.094 91.8382C248.265 91.6562 248.471 91.5102 248.699 91.4088C248.927 91.3074 249.173 91.2527 249.422 91.2478C249.672 91.243 249.92 91.2882 250.152 91.3806C250.5 91.4927 250.805 91.7096 251.025 92.0018C251.245 92.2939 251.37 92.647 251.381 93.0126C251.394 93.3246 251.333 93.6352 251.202 93.9189C251.072 94.2026 250.876 94.4513 250.631 94.6446C250.087 95.0961 249.113 95.341 247.807 94.5902L246.115 99.2523L248.161 99.9921L249.151 97.2721C250.079 97.3297 251.001 97.0809 251.774 96.564C252.548 96.047 253.13 95.2906 253.432 94.4107C254.52 91.3861 252.067 89.7051 250.908 89.2862C250.021 88.9381 246.921 88.0622 245.637 91.7234Z" fill="#EBEBEB"/>
<path d="M247.856 100.938L245.779 100.186L245.077 102.124L247.154 102.876L247.856 100.938Z" fill="#EBEBEB"/>
<path d="M26.253 115.398L30.605 113.712C30.605 113.712 29.1906 110.04 32.9822 108.5C33.7079 108.193 34.511 108.119 35.2807 108.288C36.0504 108.456 36.7489 108.859 37.2798 109.441C37.7316 109.926 38.0626 110.509 38.246 111.146C38.4294 111.782 38.4599 112.452 38.3352 113.103C38.0632 114.615 36.8664 116.367 33.7166 116.97L37.5246 126.833L41.8766 125.169L39.6462 119.391C39.6462 119.391 45.0862 115.485 42.5349 108.794C40.0597 102.397 33.7275 103.126 31.2958 104.067C29.419 104.79 23.1957 107.712 26.253 115.398Z" fill="#F5F5F5"/>
<path d="M42.7015 127.176L38.3105 128.868L39.8908 132.97L44.2818 131.278L42.7015 127.176Z" fill="#F5F5F5"/>
<path d="M247.339 131.996L244.239 133.188C244.239 133.188 245.239 135.793 242.552 136.881C242.038 137.096 241.469 137.148 240.924 137.029C240.379 136.911 239.884 136.627 239.506 136.218C239.186 135.875 238.951 135.461 238.822 135.01C238.692 134.559 238.671 134.083 238.76 133.623C238.956 132.535 239.805 131.316 242.024 130.903L239.359 123.891L236.291 125.071L237.868 129.167C236.752 130.022 235.947 131.219 235.577 132.575C235.208 133.932 235.294 135.372 235.823 136.675C237.569 141.206 242.041 140.695 243.782 140.026C245.098 139.509 249.504 137.442 247.339 131.996Z" fill="#F5F5F5"/>
<path d="M235.685 123.65L238.797 122.451L237.678 119.548L234.566 120.746L235.685 123.65Z" fill="#F5F5F5"/>
<path d="M256.098 252.291C256.098 252.372 202.324 252.432 136.005 252.432C69.6857 252.432 15.9004 252.372 15.9004 252.291C15.9004 252.209 69.6639 252.149 136.005 252.149C202.346 252.149 256.098 252.215 256.098 252.291Z" fill="#263238"/>
<path d="M50.3953 238.163C50.9393 236.161 49.5956 234.154 48.1268 232.723C46.658 231.293 44.9009 229.976 44.1338 228.056C42.8935 224.944 44.5582 220.919 42.4474 218.324C41.2017 216.8 38.9713 216.289 37.867 214.657C37.3564 213.758 37.0187 212.77 36.8714 211.747C35.6976 206.578 33.1554 201.821 29.5111 197.973C29.2654 202.576 30.2632 207.161 32.3998 211.246C33.2538 212.878 34.3092 214.467 34.5758 216.289C35.0382 219.243 33.3844 222.273 34.1134 225.189C34.9457 228.507 38.6721 230.732 38.8462 234.149C38.9985 237.037 36.4798 239.589 36.6702 242.461C36.8227 243.691 37.2686 244.866 37.9703 245.888C40.2007 249.604 43.4865 252.16 48.4586 252.079L54.5514 252.291L50.3953 238.163Z" fill="#49C0FF"/>
<g opacity="0.3">
<path d="M50.3953 238.163C50.9393 236.161 49.5956 234.154 48.1268 232.723C46.658 231.293 44.9009 229.976 44.1338 228.056C42.8935 224.944 44.5582 220.919 42.4474 218.324C41.2017 216.8 38.9713 216.289 37.867 214.657C37.3564 213.758 37.0187 212.77 36.8714 211.747C35.6976 206.578 33.1554 201.821 29.5111 197.973C29.2654 202.576 30.2632 207.161 32.3998 211.246C33.2538 212.878 34.3092 214.467 34.5758 216.289C35.0382 219.243 33.3844 222.273 34.1134 225.189C34.9457 228.507 38.6721 230.732 38.8462 234.149C38.9985 237.037 36.4798 239.589 36.6702 242.461C36.8227 243.691 37.2686 244.866 37.9703 245.888C40.2007 249.604 43.4865 252.16 48.4586 252.079L54.5514 252.291L50.3953 238.163Z" fill="black"/>
</g>
<path d="M55.7805 252.415C56.3385 252.502 56.9072 252.491 57.4615 252.383C58.1344 252.28 58.7958 252.113 59.4362 251.882C60.3207 251.575 61.1479 251.123 61.8842 250.544C62.3272 250.188 62.6733 249.726 62.8906 249.2C63.0726 248.612 63.1679 248 63.1735 247.383C63.1857 246.725 63.2348 246.067 63.3204 245.414C63.435 244.719 63.6865 244.053 64.0602 243.456C64.7783 242.194 65.9751 240.997 66.3559 239.283C66.7367 237.57 66.4756 235.774 66.1927 233.947C65.9098 232.119 65.6487 230.139 66.3341 228.224C67.0196 226.309 68.3252 224.595 68.9943 222.452C69.6634 220.309 69.3479 217.948 69.4893 215.646C69.5311 214.478 69.8009 213.328 70.2836 212.263C70.7732 211.175 71.4586 210.168 71.9917 209.037C73.0797 206.741 73.2647 204.141 73.5584 201.59C73.7053 200.306 73.8468 199.006 73.9937 197.7C74.0862 196.38 74.3141 195.073 74.6737 193.799C75.0864 192.516 75.5732 191.257 76.1316 190.03C76.4191 189.395 76.6556 188.738 76.8388 188.066C76.9413 187.37 77.0066 186.669 77.0346 185.966C77.0995 184.558 77.0449 183.148 76.8714 181.75C76.7082 180.346 76.4525 178.954 76.3002 177.545C76.3002 177.458 76.3002 177.376 76.3002 177.3L76.2676 177.022L76.0228 177.142C74.7365 177.802 73.6196 178.75 72.7588 179.911C71.9144 181.048 71.235 182.299 70.7405 183.627C69.7232 186.243 69.3588 188.985 68.8474 191.602C68.336 194.218 67.6832 196.791 66.345 198.967C65.6759 200.055 64.8653 201.046 64.169 202.101C63.4129 203.131 62.8962 204.317 62.6567 205.572C62.2922 208.15 63.712 210.413 63.4183 212.698C63.2857 213.817 62.9147 214.895 62.3303 215.859C61.7863 216.832 61.128 217.735 60.5079 218.638C59.8793 219.524 59.333 220.466 58.8759 221.451C58.4456 222.415 58.1913 223.449 58.1252 224.503C57.9783 226.559 58.2666 228.507 58.1252 230.345C57.9553 232.098 57.4434 233.8 56.6183 235.356C55.8839 236.852 55.0624 238.206 54.377 239.523C54.0343 240.175 53.7133 240.817 53.4522 241.465C53.2051 242.086 53.0228 242.732 52.9082 243.39C52.7261 244.541 52.7115 245.712 52.8647 246.867C53.0245 248.477 53.627 250.011 54.6055 251.3C54.7551 251.495 54.9207 251.677 55.1005 251.844C55.2207 251.97 55.3538 252.083 55.4976 252.182C55.7261 252.35 55.8458 252.426 55.8458 252.426C55.4109 252.083 55.0151 251.692 54.6653 251.262C53.7313 249.969 53.1672 248.445 53.0333 246.856C52.8948 245.716 52.9204 244.561 53.1095 243.429C53.224 242.785 53.4064 242.156 53.6535 241.552C53.9291 240.897 54.2397 240.258 54.5837 239.637C55.2746 238.331 56.1015 236.982 56.8522 235.475C57.7019 233.895 58.2307 232.163 58.408 230.378C58.5712 228.501 58.2884 226.543 58.4407 224.541C58.5108 223.521 58.7593 222.521 59.1751 221.587C59.6351 220.622 60.1813 219.701 60.8071 218.834C61.4272 217.931 62.0855 217.028 62.6512 216.033C63.2722 215.032 63.6693 213.91 63.8154 212.742C64.1092 210.31 62.7002 208.036 63.0647 205.637C63.3031 204.437 63.8027 203.304 64.528 202.318C65.2189 201.279 66.0349 200.289 66.704 199.174C68.0912 196.938 68.7604 194.316 69.2663 191.689C69.7722 189.061 70.1476 186.341 71.1485 183.774C71.63 182.483 72.2911 181.267 73.1124 180.161C73.9405 179.047 75.0147 178.138 76.2512 177.507L75.9738 177.349C75.9738 177.43 75.9738 177.512 76.001 177.599C76.1533 179.024 76.409 180.417 76.545 181.81C76.7168 183.186 76.7696 184.575 76.7028 185.96C76.6753 186.641 76.6135 187.32 76.5178 187.995C76.342 188.646 76.1127 189.281 75.8324 189.894C75.271 191.134 74.7806 192.405 74.3636 193.702C74.001 194.995 73.7713 196.322 73.6781 197.662C73.5367 198.973 73.3898 200.273 73.2484 201.557C72.9546 204.119 72.7642 206.676 71.7252 208.89C71.1812 209.978 70.5284 211.017 70.0224 212.127C69.5245 213.232 69.2474 214.424 69.2064 215.636C69.0704 217.986 69.3751 220.287 68.7386 222.365C68.1021 224.443 66.7802 226.173 66.1111 228.137C65.442 230.101 65.6868 232.179 65.9805 234.001C66.2743 235.823 66.568 237.619 66.1764 239.234C65.7847 240.85 64.664 242.058 63.9351 243.352C63.5508 243.976 63.2938 244.669 63.1789 245.392C63.0967 246.053 63.0532 246.718 63.0484 247.383C63.0492 247.984 62.9612 248.582 62.7872 249.157C62.5857 249.655 62.2621 250.095 61.8461 250.435C61.1295 251.013 60.3227 251.469 59.458 251.784C58.826 252.028 58.1719 252.21 57.505 252.328C57.0974 252.402 56.6844 252.442 56.2701 252.448C55.9274 252.415 55.7805 252.415 55.7805 252.415Z" fill="#263238"/>
<path d="M75.0268 180.662C74.9977 180.72 74.9775 180.783 74.9669 180.847L74.8364 181.391C74.7167 181.875 74.5698 182.599 74.3413 183.502C74.1129 184.405 73.5525 185.428 73.0792 186.684C72.5249 188.099 72.042 189.54 71.6322 191.004C71.1644 192.636 70.7564 194.431 70.3212 196.367C69.9513 198.43 69.2958 200.431 68.3737 202.313C67.8732 203.303 67.2856 204.304 66.8668 205.403C66.4275 206.525 66.1332 207.699 65.9909 208.896C65.6815 211.374 65.2421 213.835 64.6744 216.267C63.4559 221.255 62.2917 226.01 61.2309 230.34C60.1701 234.67 59.1692 238.544 58.3423 241.819C57.5154 245.093 56.8898 247.705 56.4328 249.571C56.2207 250.463 56.052 251.164 55.9324 251.681C55.8834 251.904 55.8399 252.084 55.8072 252.225C55.8012 252.289 55.8012 252.352 55.8072 252.416C55.8388 252.359 55.8626 252.299 55.878 252.236C55.916 252.089 55.9705 251.915 56.0357 251.692C56.1717 251.186 56.3621 250.485 56.6069 249.598C57.0965 247.748 57.7874 245.121 58.6415 241.884C59.4956 238.647 60.4911 234.73 61.6063 230.427C62.7215 226.124 63.853 221.337 65.0824 216.343C65.6464 213.904 66.075 211.436 66.3663 208.95C66.5053 207.782 66.7904 206.636 67.2149 205.539C67.6447 204.451 68.1941 203.477 68.6946 202.477C69.7826 200.491 70.2124 198.358 70.6421 196.438C71.0719 194.518 71.4527 192.701 71.8988 191.08C72.3448 189.459 72.8127 188.012 73.2805 186.76C73.7484 185.509 74.2652 184.476 74.4882 183.54C74.7112 182.604 74.8146 181.908 74.9125 181.407C74.9488 181.183 74.9814 181.001 75.0105 180.863C75.0268 180.727 75.0376 180.662 75.0268 180.662Z" fill="#263238"/>
<path d="M56.8573 252.443C60.834 250.077 61.9764 242.896 60.3172 238.577C58.658 234.257 55.753 230.308 55.3069 225.7C54.9588 222.159 56.1229 218.525 55.3069 215.065C54.1917 210.392 49.633 206.774 49.6874 201.971C49.7146 199.278 51.2487 196.743 51.1236 194.05C50.9767 190.753 48.4416 188.131 46.8749 185.226C44.4704 180.771 44.3127 175.511 43.4912 170.538C42.6698 165.566 40.7712 160.202 36.3431 157.749C35.6903 161.987 34.5751 164.892 34.9232 170.631C35.0538 172.693 37.4474 176.615 37.7738 181.157C37.9696 183.877 38.1002 186.565 38.2688 189.263C38.4375 191.961 38.6007 194.572 39.5418 197.031C40.2653 198.919 41.424 200.633 41.9626 202.58C42.969 206.241 41.6416 210.196 42.4576 213.917C43.1485 217.061 45.3245 219.765 45.7706 222.953C46.3908 227.43 43.4967 232.087 44.9764 236.357C45.7162 238.479 47.457 240.165 47.952 242.368C48.3383 244.065 47.9194 245.866 48.2676 247.569C48.8116 250.322 54.0666 252.465 56.8682 252.285" fill="#49C0FF"/>
<path d="M37.4313 161.933C37.4239 162.012 37.4239 162.092 37.4313 162.172C37.4313 162.351 37.4858 162.58 37.5184 162.868C37.6109 163.483 37.7142 164.381 37.9209 165.545C38.1277 166.709 38.7478 168.025 39.2265 169.614C39.7053 171.202 40.2384 173.019 40.6845 175.054C41.1305 177.088 41.5222 179.357 41.9193 181.789C42.3165 184.22 42.7517 186.87 43.9593 189.405C44.5033 190.672 45.1453 191.945 45.5913 193.305C46.0484 194.697 46.3298 196.141 46.4291 197.603C46.6515 200.704 47.042 203.791 47.5987 206.851C48.8173 213.128 49.976 219.107 51.0313 224.552C52.0867 229.998 53.1475 234.856 53.9962 238.968C54.8448 243.081 55.5411 246.367 56.0253 248.684L56.5693 251.323C56.6346 251.606 56.6835 251.829 56.727 252.003C56.7417 252.082 56.7636 252.161 56.7923 252.237C56.8019 252.157 56.8019 252.077 56.7923 251.997C56.7597 251.818 56.7216 251.595 56.6726 251.306C56.553 250.675 56.3843 249.783 56.1722 248.652C55.7152 246.329 55.0842 243.01 54.2627 238.914C53.4413 234.818 52.4675 229.905 51.3849 224.482C50.3024 219.058 49.2089 213.058 47.9849 206.785C47.4278 203.726 47.0356 200.639 46.8099 197.537C46.7064 196.045 46.4158 194.572 45.9449 193.153C45.4608 191.771 44.8243 190.493 44.264 189.231C43.0672 186.734 42.632 184.128 42.2185 181.707C41.8051 179.286 41.408 177.012 40.9347 174.967C40.4614 172.921 39.9446 171.094 39.4115 169.527C38.8784 167.96 38.2854 166.633 38.0461 165.496C37.8067 164.359 37.6925 163.445 37.5782 162.841C37.5238 162.558 37.4803 162.33 37.4477 162.15C37.4465 162.077 37.4411 162.005 37.4313 161.933Z" fill="#263238"/>
<path d="M229.28 48.2909H227.104C227.105 48.5377 227.057 48.7823 226.962 49.0102C226.868 49.2381 226.728 49.4447 226.552 49.6177C226.376 49.7907 226.167 49.9265 225.938 50.0173C225.708 50.108 225.463 50.1518 225.216 50.146C224.852 50.159 224.492 50.0581 224.188 49.8572C223.884 49.6563 223.65 49.3655 223.519 49.0253C223.404 48.742 223.358 48.4357 223.385 48.1312C223.411 47.8268 223.509 47.5329 223.671 47.2737C224.041 46.6644 224.846 46.1149 226.304 46.3706V41.4746H224.166V44.3361C223.289 44.5943 222.52 45.1333 221.979 45.8703C221.437 46.6073 221.153 47.5017 221.169 48.416C221.169 51.5821 224.008 52.3165 225.227 52.3165C226.157 52.3383 229.323 52.1152 229.28 48.2909Z" fill="#49C0FF"/>
<path d="M224.15 40.4854H226.32V38.4562H224.15V40.4854Z" fill="#49C0FF"/>
<path d="M241.144 45.3973C241.151 45.3049 241.151 45.2122 241.144 45.1198C241.144 44.924 241.144 44.6574 241.144 44.3147C241.144 44.1406 241.144 43.9394 241.117 43.7218C241.09 43.5042 241.057 43.2648 241.019 43.0146C240.981 42.7643 240.943 42.4706 240.899 42.1822L240.671 41.2574C240.267 39.6648 239.605 38.1488 238.712 36.7694C237.416 34.7266 235.668 33.0082 233.604 31.7464C231.54 30.4846 229.213 29.7129 226.804 29.4907C226.081 29.4268 225.354 29.4123 224.628 29.4472C224.264 29.4472 223.888 29.4472 223.54 29.5179L222.419 29.6866C220.882 29.9723 219.394 30.4799 218.002 31.1934C216.549 31.9623 215.214 32.935 214.036 34.0821C212.831 35.3038 211.823 36.706 211.05 38.2382C210.218 39.8179 209.672 41.5327 209.44 43.3029C209.372 43.7514 209.333 44.2039 209.325 44.6574C209.289 45.1116 209.28 45.5676 209.298 46.0229C209.416 48.9411 210.329 51.7718 211.937 54.2101V54.0414C211.18 55.9291 210.435 57.7842 209.706 59.5902L209.576 59.9221L209.918 59.8242L215.848 58.1922L215.706 58.1595C217.703 59.6714 220.03 60.6892 222.496 61.1298C223.639 61.343 224.805 61.4142 225.966 61.3419C226.526 61.3336 227.085 61.2808 227.636 61.1842L228.447 61.059C228.714 61.0101 228.991 60.9285 229.23 60.8686C232.884 59.9427 236.089 57.7462 238.272 54.6725C239.085 53.5402 239.739 52.3008 240.214 50.9896C240.317 50.7013 240.415 50.4456 240.507 50.1627C240.6 49.8798 240.649 49.6187 240.709 49.3739C240.769 49.1291 240.834 48.8789 240.888 48.6504C240.943 48.4219 240.959 48.1989 240.992 47.9867C241.041 47.5678 241.117 47.1979 241.133 46.8987C241.149 46.5995 241.133 46.3112 241.133 46.0827C241.133 45.8542 241.133 45.7128 241.133 45.5877C241.133 45.4626 241.133 45.419 241.133 45.419C241.125 45.4749 241.125 45.5318 241.133 45.5877C241.133 45.7128 241.133 45.876 241.095 46.0827C241.057 46.2894 241.062 46.5778 241.041 46.8933C241.019 47.2088 240.937 47.5787 240.872 47.9813C240.353 50.9921 238.971 53.7875 236.894 56.0279C234.817 58.2683 232.134 59.8574 229.17 60.6021C228.915 60.6619 228.659 60.7381 228.398 60.787L227.598 60.9067C227.059 60.9968 226.513 61.0459 225.966 61.0536C224.826 61.1137 223.683 61.0388 222.561 60.8306C220.153 60.3874 217.882 59.387 215.93 57.9093L215.864 57.8549H215.783L209.848 59.4869L210.054 59.7208L212.29 54.1774L212.323 54.0904L212.274 54.0088C211.203 52.3881 210.443 50.5821 210.033 48.683C209.845 47.802 209.732 46.9067 209.695 46.0066C209.677 45.5622 209.686 45.1171 209.722 44.6738C209.726 44.231 209.762 43.7892 209.831 43.3518C210.04 41.6231 210.554 39.9452 211.349 38.396C212.105 36.8986 213.087 35.5262 214.259 34.3269C215.412 33.2008 216.72 32.2463 218.144 31.4926C219.504 30.7849 220.961 30.2809 222.468 29.9966L223.556 29.828C223.921 29.7736 224.285 29.779 224.644 29.7518C225.353 29.7181 226.064 29.7308 226.771 29.7899C229.141 29.9974 231.432 30.7421 233.471 31.9674C235.51 33.1928 237.243 34.8667 238.538 36.8619C239.436 38.2173 240.108 39.709 240.529 41.2792L240.774 42.1931C240.823 42.4814 240.866 42.7371 240.91 43.0091C240.954 43.2811 240.986 43.4987 241.024 43.7163C241.062 43.9339 241.051 44.1298 241.068 44.3038C241.068 44.6411 241.111 44.9077 241.128 45.1035C241.117 45.2017 241.123 45.3009 241.144 45.3973Z" fill="#263238"/>
<path d="M78.919 109.55H110.335C110.335 109.55 110.335 83.1718 137.747 82.704C151.984 82.4538 159.366 91.7834 162.369 98.9261C165.85 107.222 164.795 116.677 160.127 124.374C154.802 133.16 143.323 141.989 122.151 138.257L121.949 208.254H153.017V166.757C153.017 166.757 196.586 155.497 196.586 107.461C196.586 61.5206 159.436 51.5981 139.466 50.9562C128.358 50.6026 124.332 50.1238 110.591 52.0768C93.0793 54.5792 78.5491 74.9139 78.919 109.55Z" fill="#49C0FF"/>
<path d="M153.392 222.844H121.861V252.29H153.392V222.844Z" fill="#49C0FF"/>
<path opacity="0.1" d="M153.392 222.844H121.861V252.29H153.392V222.844Z" fill="black"/>
<path opacity="0.1" d="M78.919 109.55H110.335C110.335 109.55 110.335 83.1718 137.747 82.704C151.984 82.4538 159.366 91.7834 162.369 98.9261C165.85 107.222 164.795 116.677 160.127 124.374C154.802 133.16 143.323 141.989 122.151 138.257L121.949 208.254H153.017V166.757C153.017 166.757 196.586 155.497 196.586 107.461C196.586 61.5206 159.436 51.5981 139.466 50.9562C128.358 50.6026 124.332 50.1238 110.591 52.0768C93.0793 54.5792 78.5491 74.9139 78.919 109.55Z" fill="black"/>
<path d="M65.9002 109.55H97.3217C97.3217 109.55 97.3217 83.1716 124.734 82.7037C138.97 82.4535 146.352 91.7831 149.35 98.9258C152.837 107.222 151.782 116.677 147.114 124.374C141.788 133.16 130.109 141.146 108.936 137.43V208.253H140.004V166.757C140.004 166.757 183.573 155.496 183.573 107.461C183.573 61.5204 142.37 50.8525 124.739 50.8525C111.254 50.8689 65.3073 54.1274 65.9002 109.55Z" fill="#49C0FF"/>
<path opacity="0.3" d="M65.9002 109.55H97.3217C97.3217 109.55 97.3217 83.1716 124.734 82.7037C138.97 82.4535 146.352 91.7831 149.35 98.9258C152.837 107.222 151.782 116.677 147.114 124.374C141.788 133.16 130.109 141.146 108.936 137.43V208.253H140.004V166.757C140.004 166.757 183.573 155.496 183.573 107.461C183.573 61.5204 142.37 50.8525 124.739 50.8525C111.254 50.8689 65.3073 54.1274 65.9002 109.55Z" fill="black"/>
<path d="M140.38 222.844H108.85V252.29H140.38V222.844Z" fill="#49C0FF"/>
<path opacity="0.3" d="M140.38 222.844H108.85V252.29H140.38V222.844Z" fill="black"/>
<path d="M128.28 82.8455C128.125 82.859 127.968 82.859 127.813 82.8455C127.502 82.8455 127.056 82.7422 126.474 82.7367C124.829 82.6559 123.179 82.7251 121.546 82.9434C119.124 83.25 116.741 83.8098 114.436 84.6135C113.077 85.0885 111.753 85.6593 110.475 86.3217C109.094 87.012 107.793 87.8531 106.597 88.8295C105.408 89.8148 104.343 90.9399 103.425 92.1806C102.554 93.3276 101.76 94.5306 101.048 95.7818C99.858 97.9129 98.9145 100.172 98.2353 102.517C97.7748 104.099 97.4579 105.719 97.2887 107.358C97.2234 107.935 97.2071 108.392 97.1908 108.696C97.1911 108.853 97.1766 109.01 97.1473 109.164C97.1332 109.009 97.1332 108.852 97.1473 108.696C97.1473 108.386 97.1473 107.929 97.1962 107.347C97.3213 105.691 97.611 104.051 98.0612 102.451C98.7154 100.08 99.6466 97.7939 100.836 95.6404C101.55 94.3754 102.347 93.1596 103.224 92.001C104.15 90.7401 105.228 89.5982 106.433 88.601C107.644 87.6112 108.962 86.7591 110.361 86.0606C111.647 85.386 112.98 84.8042 114.349 84.3198C116.675 83.5191 119.08 82.9719 121.524 82.6878C123.168 82.4858 124.828 82.4475 126.48 82.5735C126.929 82.6022 127.375 82.6567 127.818 82.7367C127.974 82.7621 128.129 82.7984 128.28 82.8455Z" fill="#263238"/>
<path d="M175.62 77.2474C175.62 77.2474 175.582 77.2093 175.517 77.1277C175.451 77.0461 175.353 76.9047 175.245 76.7469L174.206 75.2781C173.983 74.9626 173.743 74.5981 173.46 74.2228L172.481 73.0314L171.36 71.6551C170.952 71.1764 170.474 70.714 169.995 70.2081C169.516 69.7021 169.027 69.1636 168.472 68.6468C167.917 68.13 167.324 67.6023 166.715 67.0583C166.41 66.7863 166.111 66.5143 165.784 66.226L164.773 65.4263C164.082 64.8823 163.396 64.3383 162.651 63.7943C159.403 61.4701 155.957 59.4351 152.353 57.7124L149.486 56.4177L146.641 55.3297C145.711 54.9434 144.764 54.6714 143.85 54.3668C142.936 54.0621 142.044 53.7521 141.13 53.5399L138.53 52.8599C137.687 52.6369 136.849 52.5009 136.049 52.3159C135.25 52.1309 134.477 51.9677 133.721 51.8753L131.545 51.5597C130.169 51.3258 128.907 51.2769 127.808 51.1681C127.264 51.1245 126.72 51.0647 126.268 51.0429L124.974 51.0103L123.178 50.9505H122.71H122.553C122.605 50.9423 122.658 50.9423 122.71 50.9505H123.178H124.974H126.274C126.747 50.9505 127.264 51.0157 127.819 51.0538C128.907 51.1463 130.19 51.1844 131.567 51.4074L133.743 51.7012C134.499 51.7882 135.271 51.9841 136.077 52.1309C136.882 52.2778 137.709 52.4301 138.574 52.6749L141.185 53.3495C142.088 53.5562 142.98 53.8935 143.905 54.1709C144.83 54.4484 145.771 54.7149 146.701 55.1284L149.562 56.2164L152.446 57.5165C156.068 59.2431 159.528 61.2933 162.782 63.642C163.532 64.186 164.218 64.7681 164.909 65.3066L165.92 66.041C166.247 66.313 166.546 66.585 166.851 66.8788L168.602 68.5108C169.146 69.0548 169.636 69.5988 170.12 70.0938C170.604 70.5889 171.067 71.073 171.475 71.5572L172.563 72.9444L173.531 74.1521C173.808 74.5329 174.042 74.9028 174.26 75.2401C174.684 75.8765 175.016 76.377 175.25 76.7361L175.506 77.1332C175.549 77.1662 175.587 77.2046 175.62 77.2474Z" fill="#263238"/>
<path d="M172.344 144.704C172.279 144.822 172.201 144.931 172.11 145.031L171.359 145.917C171.049 146.314 170.657 146.788 170.173 147.315C169.689 147.843 169.172 148.463 168.541 149.105C167.91 149.747 167.236 150.465 166.469 151.189C165.702 151.912 164.869 152.674 163.982 153.468C160.093 156.863 155.83 159.803 151.275 162.232C150.219 162.776 149.224 163.32 148.261 163.739C147.298 164.158 146.4 164.587 145.574 164.935C144.747 165.284 143.985 165.572 143.321 165.828C142.658 166.083 142.076 166.29 141.597 166.442L140.509 166.796C140.383 166.846 140.251 166.883 140.117 166.905C140.234 166.838 140.358 166.783 140.487 166.742L141.575 166.339C142.048 166.17 142.62 165.953 143.278 165.681C143.936 165.409 144.698 165.137 145.514 164.751C146.33 164.364 147.233 164 148.174 163.527C149.115 163.053 150.121 162.553 151.171 162.003C153.244 160.861 155.48 159.523 157.737 157.978C159.995 156.433 162.024 154.806 163.83 153.272C164.717 152.489 165.566 151.754 166.322 151.015C167.078 150.275 167.785 149.606 168.411 148.964C169.036 148.322 169.586 147.729 170.075 147.207C170.565 146.684 170.967 146.227 171.294 145.847L172.055 144.982C172.144 144.881 172.24 144.789 172.344 144.704Z" fill="#263238"/>
<path d="M139.454 205.784C139.372 205.784 139.307 197.047 139.307 186.271C139.307 175.494 139.372 166.752 139.454 166.752C139.535 166.752 139.595 175.489 139.595 186.271C139.595 197.053 139.53 205.784 139.454 205.784Z" fill="#263238"/>
<path d="M140.651 250.294C140.57 250.294 140.51 244.163 140.51 236.601C140.51 229.04 140.57 222.903 140.651 222.903C140.733 222.903 140.793 229.034 140.793 236.601C140.793 244.168 140.727 250.294 140.651 250.294Z" fill="#263238"/>
<path d="M171.577 105.378C171.033 106.466 173.062 107.358 174.232 107.711C175.425 108.004 176.66 108.089 177.882 107.962C179.514 107.875 181.184 107.722 182.593 106.917C183.827 106.153 184.813 105.047 185.433 103.735C186.044 102.426 186.526 101.062 186.874 99.6602C186.874 99.6602 174.02 100.498 171.577 105.378Z" fill="#49C0FF"/>
<g opacity="0.4">
<path d="M171.577 105.378C171.033 106.466 173.062 107.358 174.232 107.711C175.425 108.004 176.66 108.089 177.882 107.962C179.514 107.875 181.184 107.722 182.593 106.917C183.827 106.153 184.813 105.047 185.433 103.735C186.044 102.426 186.526 101.062 186.874 99.6602C186.874 99.6602 174.02 100.498 171.577 105.378Z" fill="black"/>
</g>
<path d="M207.885 101.896C210.004 103.399 212.544 104.195 215.142 104.17C216.387 104.239 217.615 103.852 218.596 103.082C219.015 102.696 219.33 102.206 219.76 101.836C220.054 101.586 220.397 101.395 220.674 101.129C220.82 101.003 220.933 100.842 221.003 100.662C221.072 100.482 221.096 100.287 221.071 100.095C220.964 99.6229 220.699 99.2009 220.32 98.8985C218.846 98.0608 217.084 98.0934 215.386 98.1315C213.688 98.205 212.01 98.5333 210.409 99.1052C209.092 99.5513 207.716 100.193 207.047 101.39" fill="#49C0FF"/>
<g opacity="0.4">
<path d="M221.071 100.096C220.879 99.6367 220.54 99.2542 220.108 99.0075C218.634 98.1698 217.084 98.0936 215.386 98.1317C213.688 98.2052 212.01 98.5335 210.409 99.1054C209.092 99.5515 207.716 100.193 207.047 101.39L207.885 101.896C210.004 103.399 212.544 104.195 215.142 104.17C216.387 104.239 217.615 103.853 218.596 103.082C219.015 102.696 219.33 102.206 219.76 101.836C220.054 101.586 220.397 101.396 220.674 101.129C220.82 101.003 220.933 100.843 221.003 100.662C221.072 100.482 221.096 100.287 221.071 100.096Z" fill="black"/>
</g>
<path d="M182.784 121.42L209.903 121.779C209.958 121.779 210.012 121.766 210.062 121.741C210.111 121.716 210.154 121.68 210.186 121.636C210.219 121.591 210.241 121.54 210.25 121.485C210.26 121.431 210.256 121.375 210.24 121.322L207.058 111.4C207.058 111.4 207.525 106.438 208.173 100.476C209.157 91.4186 210.469 80.0327 210.485 80.0653C208.63 74.8647 197.685 73.9834 197.685 73.9834L185.211 74.7232L184.775 73.9888L181.185 75.6589C180.402 76.0232 179.649 76.4489 178.933 76.9319C176.561 78.5149 170.849 82.1543 169.805 86.2071C167.395 95.5911 171.475 106.063 171.475 106.063L174.097 104.012C174.757 103.503 175.451 103.04 176.175 102.625L181.43 116.709C181.117 116.906 180.852 117.171 180.655 117.483C180.457 117.796 180.332 118.148 180.287 118.515C180.244 119.658 180.831 121.029 182.784 121.42Z" fill="#49C0FF"/>
<g opacity="0.3">
<path d="M194.421 104.818C195.281 100.194 194.829 95.4391 194.367 90.7607C192.866 94.5687 192.92 98.9207 191.326 102.696C191.131 103.095 190.988 103.517 190.902 103.953C190.86 104.171 190.871 104.397 190.933 104.611C190.996 104.824 191.108 105.02 191.261 105.182C191.696 105.579 192.349 105.362 192.925 105.296C193.442 105.198 193.944 105.037 194.421 104.818Z" fill="black"/>
</g>
<g opacity="0.4">
<path d="M184.417 115.524C186.593 116.28 188.91 114.871 191.211 114.621C192.735 114.458 194.258 114.806 195.77 115.051C198.828 115.545 201.939 115.622 205.018 115.279C205.491 115.253 205.953 115.133 206.378 114.926C206.598 114.776 206.778 114.574 206.902 114.339C207.026 114.104 207.091 113.842 207.091 113.576C201.966 113.032 196.847 112.739 191.723 112.211C190.447 111.993 189.141 112.036 187.882 112.336C186.337 112.815 185.162 114.028 184.074 115.23" fill="black"/>
</g>
<path d="M220.287 98.3117C218.073 93.3232 210.266 79.5273 210.266 79.5273L204.223 87.1053L205.632 101.984C205.632 101.984 208.825 98.4205 217.752 98.3497C218.401 98.3757 219.035 98.5465 219.61 98.8496C220.184 99.1527 220.683 99.5804 221.07 100.101L220.287 98.3117Z" fill="#49C0FF"/>
<path d="M183.997 95.6728C183.566 94.6152 183.224 93.5234 182.974 92.4088C182.636 91.3232 182.389 90.2114 182.234 89.085C182.659 90.1444 182.999 91.2358 183.252 92.349C183.59 93.4349 183.839 94.5465 183.997 95.6728Z" fill="#263238"/>
<path d="M203.767 86.0986C203.964 86.2377 204.146 86.3963 204.311 86.5719C204.792 87.0361 205.243 87.5303 205.66 88.0516C207.067 89.7711 208.056 91.7933 208.549 93.9594C208.805 95.1569 208.862 96.3883 208.718 97.6042C208.582 98.7194 208.37 99.6986 208.228 100.526C208.087 101.352 208 102.027 207.956 102.495C207.955 102.738 207.929 102.98 207.88 103.218C207.841 102.976 207.831 102.729 207.847 102.484C207.871 101.817 207.933 101.153 208.032 100.493C208.147 99.6605 208.337 98.6705 208.462 97.577C208.588 96.3885 208.524 95.1876 208.272 94.0193C207.784 91.8936 206.839 89.8998 205.503 88.1767C204.507 86.8385 203.724 86.1422 203.767 86.0986Z" fill="#263238"/>
<path d="M198.229 120.224C198.04 120.308 197.84 120.367 197.636 120.398C197.403 120.459 197.167 120.505 196.929 120.534C196.651 120.572 196.336 120.632 195.982 120.648C195.153 120.724 194.319 120.724 193.491 120.648C192.477 120.544 191.475 120.344 190.499 120.05C189.527 119.738 188.588 119.335 187.692 118.848C186.965 118.442 186.275 117.974 185.63 117.449C185.347 117.232 185.118 117.003 184.912 116.813C184.733 116.652 184.564 116.482 184.406 116.302C184.255 116.162 184.124 116 184.02 115.823C184.058 115.785 184.64 116.438 185.755 117.292C186.406 117.787 187.096 118.231 187.817 118.619C188.703 119.085 189.627 119.472 190.58 119.778C191.54 120.067 192.523 120.271 193.518 120.387C194.331 120.475 195.149 120.5 195.966 120.463C197.364 120.387 198.218 120.18 198.229 120.224Z" fill="#263238"/>
<path d="M206.601 117.134C206.729 117.38 206.801 117.651 206.813 117.928C206.9 118.591 206.85 119.265 206.666 119.908C206.479 120.566 206.101 121.153 205.578 121.595C205.181 121.926 204.876 122.03 204.86 122.003C204.844 121.975 205.099 121.796 205.442 121.459C205.882 121 206.202 120.439 206.372 119.827C206.808 118.39 206.498 117.139 206.601 117.134Z" fill="#263238"/>
<path d="M205.126 119.049C205.244 119.608 205.197 120.19 204.99 120.723C204.784 121.256 204.426 121.718 203.962 122.052C203.902 121.992 204.408 121.453 204.723 120.621C205.039 119.789 205.044 119.054 205.126 119.049Z" fill="#263238"/>
<path d="M200.274 101.151C199.986 101.639 199.662 102.104 199.306 102.544C199.024 103.035 198.706 103.505 198.354 103.948C198.458 103.373 198.705 102.835 199.072 102.381C199.362 101.876 199.775 101.453 200.274 101.151Z" fill="#263238"/>
<path d="M181.659 87.9756C181.245 87.7322 180.843 87.4671 180.457 87.1813C178.522 85.9103 176.327 85.0904 174.032 84.7823C173.552 84.7473 173.074 84.6837 172.602 84.5919C173.083 84.5254 173.572 84.5254 174.054 84.5919C176.411 84.793 178.668 85.6338 180.582 87.0236C180.984 87.2894 181.346 87.6098 181.659 87.9756Z" fill="#263238"/>
<path d="M210.268 79.3477C209.294 80.1317 208.385 80.9921 207.548 81.9208C206.778 82.9119 206.088 83.9634 205.486 85.0651C205.551 84.6946 205.678 84.3377 205.862 84.0097C206.256 83.194 206.749 82.4303 207.33 81.7358C207.914 81.0428 208.583 80.4268 209.322 79.9025C209.603 79.6644 209.923 79.4767 210.268 79.3477Z" fill="#263238"/>
<path d="M199.072 74.8652C199.121 74.9437 199.161 75.0277 199.191 75.1155C199.297 75.3618 199.383 75.6166 199.447 75.8771C199.676 76.8465 199.676 77.8561 199.447 78.8256C199.108 80.2727 198.334 81.5811 197.228 82.5737C195.831 83.7565 194.052 84.3908 192.223 84.358C190.392 84.3643 188.607 83.7785 187.136 82.688C185.964 81.793 185.013 80.641 184.356 79.3206C183.914 78.4365 183.603 77.4927 183.432 76.519C183.382 76.2567 183.349 75.9914 183.334 75.7248C183.318 75.6311 183.318 75.5355 183.334 75.4419C183.334 75.4419 183.394 75.8227 183.546 76.4972C183.757 77.4435 184.092 78.358 184.541 79.2172C185.205 80.4979 186.148 81.6133 187.3 82.4812C188.717 83.5309 190.432 84.1025 192.196 84.1132C193.959 84.1456 195.675 83.5433 197.032 82.416C198.1 81.4597 198.858 80.2055 199.208 78.8147C199.45 77.8759 199.483 76.8955 199.306 75.9424C199.202 75.2243 199.039 74.8761 199.072 74.8652Z" fill="#263238"/>
<g opacity="0.3">
<path d="M200.976 102.114C200.976 101.842 200.932 101.521 200.693 101.385C200.617 101.347 200.533 101.327 200.448 101.327C200.363 101.327 200.279 101.347 200.203 101.385C200.051 101.468 199.916 101.578 199.806 101.712C199.166 102.377 198.672 103.168 198.354 104.035L201.019 103.801C201.003 103.251 200.992 102.675 200.976 102.114Z" fill="black"/>
</g>
<g opacity="0.3">
<path d="M209.827 96.5055C209.559 94.9801 208.891 93.5534 207.891 92.3711C209.044 96.1356 208.658 98.2626 208.01 100.841L208.152 100.482C208.897 98.9753 210.029 98.0287 209.827 96.5055Z" fill="black"/>
</g>
<path d="M204.5 222.964L202.874 247.362L192.266 247.237L190.596 221.87L204.5 222.964Z" fill="#FFBE9D"/>
<path d="M203.173 244.152V244.859C203.173 244.859 215.141 249.668 215.256 251.931L191.488 251.801L191.858 243.896C195.4 245.556 199.104 245.762 203.173 244.152Z" fill="#49C0FF"/>
<path d="M194.268 246.431C194.043 246.499 193.85 246.648 193.725 246.848C193.601 247.048 193.554 247.287 193.594 247.519C193.652 247.751 193.798 247.952 194 248.079C194.203 248.205 194.447 248.249 194.682 248.199C194.924 248.127 195.13 247.967 195.261 247.751C195.392 247.535 195.437 247.278 195.389 247.03C195.303 246.795 195.128 246.603 194.903 246.494C194.677 246.385 194.419 246.369 194.181 246.448" fill="white"/>
<path d="M191.488 251.801L191.575 249.902L214.336 250.729C214.336 250.729 215.392 251.197 215.267 251.937L191.488 251.801Z" fill="#263238"/>
<path d="M203.261 244.924C203.261 245.039 202.673 245.088 202.102 245.468C201.531 245.849 201.221 246.323 201.117 246.279C201.014 246.235 201.188 245.561 201.89 245.126C202.592 244.691 203.288 244.799 203.261 244.924Z" fill="#263238"/>
<path d="M205.746 245.969C205.773 246.083 205.267 246.274 204.87 246.763C204.473 247.253 204.359 247.77 204.239 247.764C204.119 247.759 204.054 247.101 204.56 246.508C205.066 245.915 205.74 245.888 205.746 245.969Z" fill="#263238"/>
<path d="M207.145 248.961C207.036 248.961 206.878 248.417 207.183 247.77C207.488 247.123 208.026 246.889 208.075 246.981C208.124 247.074 207.787 247.417 207.531 247.944C207.275 248.472 207.265 248.951 207.145 248.961Z" fill="#263238"/>
<path d="M202.565 44.526C203.179 43.0028 202.434 41.1586 201.112 40.174C199.719 39.2569 198.02 38.9265 196.385 39.2546C194.771 39.5929 193.209 40.1416 191.739 40.8866C191.055 40.197 190.193 39.7111 189.249 39.483C188.305 39.2549 187.316 39.2937 186.393 39.595C185.47 39.8964 184.649 40.4484 184.021 41.1894C183.394 41.9305 182.984 42.8314 182.839 43.7916C182.251 43.6435 181.633 43.6584 181.053 43.8347C180.473 44.0109 179.951 44.3419 179.545 44.792C179.138 45.2421 178.862 45.7945 178.746 46.3897C178.629 46.985 178.677 47.6007 178.884 48.1708L186.239 50.7548L194.269 64.8988C195.455 65.9112 196.97 66.4573 198.529 66.4352C200.089 66.4131 201.587 65.8243 202.745 64.7787C203.902 63.733 204.64 62.302 204.82 60.7526C205 59.2031 204.61 57.6411 203.723 56.358C204.173 55.9579 204.555 55.4876 204.855 54.9653C205.496 54.5859 206.056 54.0827 206.502 53.485C206.947 52.8873 207.269 52.2071 207.45 51.4837C208.162 48.334 205.725 44.8959 202.565 44.526Z" fill="#263238"/>
<path d="M197.695 73.9833C197.238 71.6821 196.923 70.1045 196.928 70.1209C196.934 70.1372 201.28 68.4345 200.965 62.3797C200.812 59.366 199.664 54.6169 198.598 50.7653C197.641 47.2946 194.404 43.4703 190.982 44.5746L180.608 49.6338C179.569 49.9711 179.39 50.9503 179.634 52.0111V52.5551L183.665 69.2341L185.368 76.6869C185.731 78.2173 186.654 79.5563 187.955 80.4403C189.256 81.3243 190.84 81.6892 192.397 81.4633C193.247 81.3437 194.063 81.0517 194.796 80.6052C195.529 80.1586 196.164 79.5669 196.66 78.8665C197.156 78.166 197.504 77.3715 197.682 76.5318C197.86 75.6921 197.864 74.8248 197.695 73.9833Z" fill="#FFBE9D"/>
<path d="M198.56 54.7911C198.604 54.9842 198.572 55.1866 198.471 55.3566C198.369 55.5267 198.207 55.6514 198.016 55.7051C197.92 55.7319 197.82 55.739 197.721 55.726C197.622 55.713 197.527 55.68 197.441 55.6292C197.355 55.5784 197.28 55.5107 197.221 55.4303C197.162 55.3498 197.12 55.2582 197.097 55.1611C197.054 54.9687 197.086 54.7671 197.187 54.5979C197.288 54.4287 197.451 54.3051 197.641 54.2526C197.737 54.2249 197.837 54.2169 197.936 54.2293C198.035 54.2416 198.13 54.274 198.216 54.3244C198.302 54.3747 198.377 54.4421 198.436 54.5224C198.496 54.6026 198.538 54.6941 198.56 54.7911Z" fill="#263238"/>
<path d="M198.087 53.6324C198.011 53.7521 197.353 53.4529 196.548 53.6324C195.743 53.8119 195.231 54.3342 195.123 54.2526C195.014 54.171 195.123 54.0186 195.346 53.7793C195.645 53.463 196.034 53.2465 196.461 53.1591C196.882 53.0684 197.321 53.1161 197.712 53.2951C198.017 53.4202 198.12 53.5834 198.087 53.6324Z" fill="#263238"/>
<path d="M190.662 56.5752C190.706 56.7675 190.673 56.9692 190.572 57.1383C190.471 57.3075 190.308 57.4312 190.118 57.4837C190.024 57.511 189.926 57.5194 189.828 57.5085C189.731 57.4975 189.637 57.4674 189.552 57.4199C189.466 57.3723 189.391 57.3083 189.33 57.2314C189.27 57.1546 189.225 57.0665 189.199 56.9723C189.155 56.7793 189.187 56.5769 189.288 56.4068C189.39 56.2368 189.552 56.112 189.743 56.0584C189.837 56.0311 189.936 56.0229 190.033 56.0342C190.131 56.0455 190.225 56.0761 190.311 56.1242C190.396 56.1723 190.471 56.2369 190.532 56.3144C190.592 56.3918 190.636 56.4805 190.662 56.5752Z" fill="#263238"/>
<path d="M190.265 55.553C190.194 55.6727 189.531 55.3681 188.726 55.553C187.921 55.738 187.409 56.2493 187.3 56.1732C187.192 56.097 187.3 55.9393 187.523 55.6945C187.824 55.381 188.213 55.1666 188.639 55.0797C189.059 54.9904 189.497 55.0361 189.89 55.2103C190.178 55.3409 190.303 55.4878 190.265 55.553Z" fill="#263238"/>
<path d="M194.361 60.6663C194.76 60.4463 195.184 60.2746 195.623 60.155C195.825 60.0897 196.015 60.0081 196.02 59.8612C195.992 59.6448 195.899 59.442 195.754 59.2791L194.813 57.8321C193.496 55.7703 192.495 54.0622 192.577 54.0241C192.659 53.986 193.795 55.6017 195.112 57.6635L196.031 59.1214C196.212 59.3445 196.31 59.6231 196.309 59.9102C196.293 59.9884 196.259 60.0621 196.211 60.1261C196.163 60.19 196.102 60.2426 196.031 60.2801C195.925 60.3364 195.811 60.3785 195.694 60.4052C195.264 60.5525 194.815 60.6404 194.361 60.6663Z" fill="#263238"/>
<path d="M196.929 70.1209C194.178 70.7427 191.308 70.5883 188.639 69.6748C188.639 69.6748 191.489 73.3958 197.239 71.6169L196.929 70.1209Z" fill="#EB996E"/>
<path d="M190.4 54.3991C190.346 54.633 189.514 54.6276 188.567 54.8615C187.621 55.0954 186.87 55.449 186.718 55.2641C186.652 55.177 186.761 54.9485 187.049 54.7201C187.433 54.3973 187.888 54.1716 188.377 54.0618C188.861 53.9468 189.366 53.9468 189.851 54.0618C190.237 54.1325 190.438 54.2903 190.4 54.3991Z" fill="#263238"/>
<path d="M197.778 51.0645C197.647 51.2821 196.951 51.2277 196.146 51.3854C195.34 51.5432 194.704 51.8152 194.514 51.6574C194.427 51.5758 194.514 51.3691 194.747 51.1134C195.107 50.8114 195.541 50.6121 196.004 50.5368C196.46 50.445 196.932 50.4789 197.37 50.6347C197.701 50.7871 197.832 50.9557 197.778 51.0645Z" fill="#263238"/>
<path d="M183.171 45.7393C183.292 46.3286 183.54 46.8841 183.9 47.3665C184.259 47.8489 184.72 48.2462 185.25 48.5302C185.781 48.8143 186.367 48.9781 186.967 49.01C187.568 49.0419 188.168 48.9412 188.726 48.715C189.585 48.3668 190.477 47.714 191.348 48.0295C192.218 48.345 192.577 49.5854 193.409 50.0478C194.633 50.7332 196.129 49.5473 197.495 49.667C198.583 49.7594 199.404 50.5918 200.248 51.299C201.091 52.0062 202.255 52.5393 203.207 52.0279C202.989 51.1194 202.666 50.2395 202.244 49.4058C201.819 48.5666 201.115 47.9012 200.253 47.5236C199.774 47.3332 199.257 47.2679 198.801 47.034C197.816 46.5335 197.375 45.402 196.663 44.5479C196.195 44.0097 195.605 43.5908 194.943 43.3259C194.281 43.061 193.565 42.9577 192.855 43.0247C191.68 43.1444 190.564 43.7373 189.378 43.6884C188.503 43.6503 187.665 43.2586 186.789 43.275C185.086 43.275 183.808 44.7981 182.861 46.218" fill="#263238"/>
<path d="M188.904 46.9849C188.121 46.925 186.521 46.7618 185.994 46.2069C185.457 45.6074 184.773 45.1591 184.01 44.9071C183.246 44.655 182.429 44.608 181.642 44.7708C180.86 45.0038 180.174 45.4816 179.684 46.1338C179.194 46.786 178.927 47.5783 178.922 48.3938C177.97 48.6261 177.098 49.1111 176.399 49.7977C175.7 50.4842 175.2 51.3468 174.95 52.2943C174.697 53.2862 174.689 54.3248 174.925 55.3207C175.162 56.3166 175.638 57.2401 176.31 58.0117C176.637 58.4204 176.935 58.8512 177.202 59.301C176.834 59.7586 176.509 60.2505 176.234 60.7698C174.988 63.5225 178.367 64.5778 178.367 64.5778C178.367 66.4274 180.08 66.4165 181.174 66.4111C182.267 66.4057 182.871 69.3269 183.725 69.2127L182.86 60.1986C182.987 60.2479 183.121 60.2737 183.257 60.2748C185.319 60.3129 184.78 56.4069 184.117 55.3788C184.731 54.6141 185.25 53.7774 185.662 52.8873C186.035 51.5265 186.061 50.0937 185.738 48.7202C186.429 48.6332 189.241 47.0066 188.904 46.9849Z" fill="#263238"/>
<path d="M183.133 60.677C183.062 60.3905 182.921 60.1266 182.721 59.9097C182.521 59.6928 182.27 59.53 181.99 59.4366C181.71 59.3432 181.411 59.3221 181.121 59.3754C180.831 59.4287 180.559 59.5545 180.331 59.7413C179.787 60.2091 179.499 60.9925 179.825 62.3035C180.706 65.8069 184.041 64.2021 184.019 64.1042C183.998 64.0062 183.513 62.124 183.133 60.677Z" fill="#FFBE9D"/>
<path d="M182.615 63.0437C182.615 63.0437 182.566 63.1036 182.473 63.1743C182.345 63.2729 182.183 63.3178 182.022 63.2994C181.619 63.2559 181.157 62.7554 180.983 62.1189C180.9 61.8215 180.883 61.5096 180.934 61.205C180.939 61.0867 180.973 60.9715 181.033 60.8692C181.093 60.7669 181.176 60.6805 181.277 60.6175C181.343 60.5819 181.419 60.5706 181.493 60.5855C181.566 60.6004 181.632 60.6406 181.679 60.6991C181.75 60.7807 181.744 60.8569 181.766 60.8623C181.788 60.8677 181.826 60.7807 181.766 60.6447C181.724 60.564 181.658 60.4991 181.576 60.4597C181.461 60.4132 181.332 60.4132 181.217 60.4597C181.08 60.5246 180.962 60.623 180.874 60.7456C180.785 60.8683 180.729 61.0114 180.711 61.1615C180.64 61.5041 180.653 61.8586 180.749 62.1951C180.81 62.511 180.962 62.8019 181.188 63.0313C181.413 63.2607 181.702 63.4183 182.016 63.4844C182.119 63.4885 182.221 63.4697 182.315 63.4292C182.409 63.3887 182.493 63.3276 182.56 63.2505C182.631 63.1308 182.631 63.0492 182.615 63.0437Z" fill="#EB996E"/>
<path d="M201.917 55.7869C201.917 55.7869 202.238 55.5421 202.684 54.9981C203.299 54.2143 203.677 53.2703 203.772 52.2781C203.844 51.6009 203.777 50.916 203.576 50.2653C203.344 49.519 202.913 48.8496 202.33 48.3287C201.657 47.741 200.842 47.3394 199.966 47.1639C199.09 46.9883 198.184 47.0448 197.336 47.3277C197.173 47.3821 197.021 47.4637 196.869 47.529C196.716 47.5943 196.58 47.6922 196.439 47.7738L196.221 47.8935V47.6541C196.216 47.2327 196.06 46.8271 195.781 46.5117C195.494 46.2056 195.143 45.9677 194.752 45.8154C194.014 45.5075 193.195 45.4465 192.419 45.6413C190.917 45.9841 189.644 46.6695 188.442 46.8109C187.499 46.9748 186.529 46.7808 185.722 46.2669C185.509 46.1204 185.325 45.936 185.178 45.7229C185.091 45.5761 185.047 45.4945 185.058 45.489C185.255 45.7576 185.496 45.9912 185.771 46.1799C186.565 46.6384 187.498 46.7948 188.398 46.6205C189.025 46.5027 189.637 46.3204 190.226 46.0765C190.918 45.8002 191.626 45.5694 192.348 45.3857C192.75 45.2883 193.164 45.2462 193.577 45.2605C194.014 45.2836 194.443 45.383 194.845 45.5543C195.261 45.732 195.632 45.9995 195.933 46.3377C196.255 46.7059 196.436 47.1761 196.444 47.665L196.227 47.5453L196.678 47.2842C196.847 47.2189 197.005 47.1319 197.179 47.0721C198.072 46.7662 199.03 46.7022 199.956 46.8866C200.882 47.071 201.742 47.4972 202.45 48.122C203.062 48.6759 203.51 49.3872 203.745 50.1783C203.989 51.0168 204.022 51.9026 203.84 52.7569C203.659 53.6111 203.269 54.4073 202.706 55.0743C202.526 55.2788 202.324 55.4614 202.102 55.6183C202.047 55.6818 201.985 55.7384 201.917 55.7869Z" fill="#455A64"/>
<path d="M201.209 43.487C200.852 43.3057 200.471 43.1757 200.078 43.1008C199.628 43.0393 199.17 43.0821 198.739 43.2259C198.182 43.3965 197.697 43.7489 197.363 44.2269L197.227 44.4173L197.146 44.1997C196.862 43.5309 196.404 42.9501 195.821 42.5169C195.238 42.0837 194.549 41.8139 193.827 41.7353C192.693 41.6927 191.575 42.017 190.639 42.6601C189.842 43.1797 188.995 43.6171 188.11 43.9657C187.5 44.1966 186.842 44.275 186.195 44.1942C186.022 44.1624 185.853 44.115 185.689 44.0528C185.58 44.0038 185.52 43.9766 185.526 43.9657C185.531 43.9549 185.771 44.0365 186.211 44.08C186.837 44.1191 187.464 44.0168 188.044 43.7808C188.905 43.4057 189.729 42.9542 190.509 42.4317C190.99 42.1327 191.5 41.883 192.032 41.6864C192.616 41.4733 193.241 41.3934 193.86 41.4525C194.631 41.5367 195.366 41.8286 195.984 42.297C196.603 42.7654 197.084 43.3929 197.374 44.1126H197.162C197.536 43.6014 198.07 43.2299 198.68 43.0573C199.143 42.923 199.631 42.8988 200.105 42.9865C200.405 43.0435 200.693 43.1541 200.954 43.3129C201.047 43.3585 201.133 43.4171 201.209 43.487Z" fill="#455A64"/>
<path d="M194.045 62.2766C193.918 62.1703 193.77 62.0921 193.611 62.0471C193.451 62.0021 193.284 61.9913 193.12 62.0154C192.929 62.0563 192.748 62.137 192.59 62.2523C192.431 62.3676 192.299 62.5149 192.201 62.6846C192.201 62.6846 192.174 62.7118 192.168 62.7281C192.093 62.8523 192.059 62.9969 192.07 63.1415C192.094 63.2991 192.156 63.4485 192.251 63.5765C192.346 63.7046 192.471 63.8074 192.614 63.8759C192.844 63.9925 193.105 64.0352 193.36 63.9982C193.615 63.9612 193.852 63.8463 194.04 63.6692C194.218 63.4813 194.317 63.2327 194.318 62.974C194.319 62.7152 194.222 62.4659 194.045 62.2766Z" fill="#49C0FF"/>
<path d="M194.316 63.9686C194.273 63.9686 194.224 63.8054 194.077 63.5823C193.9 63.2833 193.636 63.0458 193.319 62.9018C193.003 62.7578 192.65 62.7143 192.309 62.7772C192.042 62.8153 191.879 62.8915 191.863 62.8534C191.846 62.8153 191.972 62.6847 192.265 62.5814C192.65 62.4577 193.067 62.4809 193.435 62.6467C193.807 62.8122 194.101 63.114 194.256 63.4899C194.371 63.7727 194.354 63.9631 194.316 63.9686Z" fill="#263238"/>
<path d="M183.215 64.6436C183.215 64.6436 183.373 64.9156 183.166 65.329C183.049 65.5764 182.843 65.7706 182.589 65.873C182.431 65.9297 182.261 65.9489 182.094 65.9291C181.927 65.9093 181.767 65.851 181.626 65.7588C181.483 65.6717 181.362 65.5528 181.272 65.4113C181.183 65.2697 181.127 65.1094 181.11 64.9428C181.093 64.6741 181.172 64.4082 181.333 64.192C181.615 63.833 181.931 63.8221 181.931 63.8548C181.931 63.8874 181.692 63.9799 181.501 64.3063C181.391 64.4891 181.345 64.7036 181.371 64.9156C181.391 65.0397 181.438 65.158 181.508 65.2622C181.579 65.3665 181.671 65.4542 181.779 65.5194C181.885 65.5873 182.004 65.6321 182.129 65.6509C182.253 65.6696 182.381 65.6619 182.502 65.6282C182.703 65.5563 182.876 65.4231 182.997 65.2474C183.209 64.9101 183.171 64.6436 183.215 64.6436Z" fill="#49C0FF"/>
<path d="M181.38 64.4305C181.408 64.4305 181.38 64.6155 181.125 64.7351C180.999 64.7873 180.861 64.8025 180.727 64.7788C180.593 64.7551 180.469 64.6936 180.369 64.6015C180.269 64.5094 180.197 64.3906 180.162 64.2591C180.128 64.1275 180.131 63.9888 180.173 63.8593C180.226 63.7122 180.328 63.5875 180.461 63.5057C180.684 63.3697 180.853 63.4241 180.847 63.4567C180.842 63.4894 180.717 63.5275 180.581 63.6635C180.514 63.7471 180.473 63.8486 180.464 63.9552C180.454 64.0619 180.476 64.169 180.527 64.2631C180.579 64.3572 180.656 64.4341 180.751 64.4842C180.846 64.5343 180.953 64.5554 181.059 64.5447C181.244 64.5067 181.342 64.4087 181.38 64.4305Z" fill="#49C0FF"/>
<path d="M187.36 112.744C187.36 112.744 200.83 113.527 208.794 113.598C214.957 113.658 217.71 112.02 218.94 108.055C219.973 104.731 217.754 98.3496 217.754 98.3496C213.581 98.3496 211.008 98.948 208.326 100.205L209.039 103.12L187.322 104.992L187.36 112.744Z" fill="#FFBE9D"/>
<path d="M213.563 106.232C212.979 105.472 212.297 104.794 211.534 104.214C210.716 103.713 209.834 103.325 208.912 103.06C209.202 103.019 209.499 103.045 209.777 103.137C210.462 103.298 211.111 103.584 211.692 103.98C212.274 104.377 212.778 104.878 213.177 105.459C213.482 105.905 213.596 106.216 213.563 106.232Z" fill="#EB996E"/>
<path d="M182.431 100.182C182.431 100.182 178.264 101.183 175.201 103.229L178.465 112.074C179.553 114.979 182.877 116.426 185.537 114.903C189.633 112.558 191.081 105.726 191.081 105.726L195.579 86.2071L188.121 81.5342L182.458 100.182" fill="#FFBE9D"/>
<path d="M188.093 81.5339L188.398 75.1147L186.727 68.5867C186.635 68.2276 186.591 67.7761 186.885 67.5585C187.031 67.4468 187.211 67.389 187.394 67.3949C187.578 67.4009 187.753 67.4702 187.892 67.5911C188.343 68.059 190.519 73.7655 190.519 73.7655C190.519 73.7655 193.821 71.7854 194.409 71.6875C194.996 71.5895 195.731 73.3684 195.78 73.5044C195.801 73.9031 195.801 74.3026 195.78 74.7012C195.78 74.7012 197.82 74.7611 198.005 75.0385C198.153 75.6053 198.231 76.188 198.238 76.7739C198.238 76.7739 199.103 77.0513 199.239 77.7041C199.375 78.3569 199.658 79.434 199.239 79.6734C198.821 79.9127 197.972 80.3806 197.972 80.3806C197.972 80.3806 197.629 83.7099 197.537 84.0145C197.444 84.3191 195.535 86.1905 195.535 86.1905L188.093 81.5339Z" fill="#FFBE9D"/>
<path d="M181.152 115.034C181.152 115.034 181.354 115.153 181.778 115.289C182.398 115.484 183.055 115.536 183.698 115.442C184.732 115.294 185.7 114.848 186.484 114.158C187.519 113.219 188.394 112.116 189.073 110.894C189.473 110.176 189.81 109.424 190.079 108.647C190.362 107.793 190.597 106.923 190.781 106.041C191.205 104.208 191.668 102.233 192.157 100.134C193.137 95.9394 194.236 91.2501 195.421 86.1963V86.1583H195.449C195.824 85.7883 196.199 85.413 196.575 85.0213C196.76 84.8254 196.945 84.6296 197.119 84.4283C197.206 84.325 197.298 84.2216 197.369 84.1183C197.424 84.0159 197.456 83.9025 197.461 83.7864C197.608 82.6984 197.723 81.5723 197.842 80.4354V80.3646L197.908 80.332L198.947 79.7499C199.023 79.701 199.142 79.6466 199.191 79.603C199.243 79.556 199.278 79.4927 199.289 79.4235C199.315 79.2431 199.315 79.06 199.289 78.8795C199.237 78.4806 199.155 78.086 199.045 77.699C198.86 77.3606 198.549 77.1086 198.18 76.9973L198.087 76.9646V76.8722C198.087 76.5566 198.054 76.2302 198.016 75.9093C198.002 75.7485 197.978 75.5887 197.946 75.4306C197.933 75.3609 197.911 75.2932 197.88 75.2293C197.88 75.1912 197.88 75.2293 197.848 75.1966C197.818 75.1811 197.787 75.1684 197.755 75.1586C197.101 75.016 196.434 74.9413 195.764 74.9355H195.623V74.7941C195.623 74.4568 195.623 74.0815 195.623 73.7061C195.6 73.5781 195.556 73.4548 195.492 73.3416C195.438 73.2111 195.372 73.0859 195.307 72.9554C195.18 72.7034 195.031 72.4631 194.861 72.2373C194.784 72.132 194.69 72.0402 194.584 71.9653C194.544 71.9319 194.496 71.911 194.444 71.9052C194.393 71.8994 194.341 71.909 194.295 71.9326C194.032 72.0335 193.776 72.1516 193.528 72.2863C192.517 72.8302 191.526 73.3743 190.558 73.9618L190.417 74.0488L190.357 73.8965C189.845 72.6072 189.334 71.3342 188.834 70.0885C188.583 69.4629 188.339 68.8373 188.088 68.2226C188.05 68.0849 187.973 67.9608 187.867 67.8646C187.761 67.7684 187.631 67.7039 187.49 67.6786C187.36 67.6354 187.219 67.6378 187.091 67.6852C186.962 67.7327 186.854 67.8224 186.783 67.9397C186.715 68.0564 186.686 68.1918 186.701 68.3259C186.701 68.4456 186.777 68.6306 186.81 68.7774C186.897 69.093 186.979 69.403 187.06 69.7131C187.223 70.3387 187.381 70.9534 187.544 71.5627C187.863 72.7885 188.177 73.9853 188.485 75.1531V75.1912C188.377 77.4252 188.273 79.565 188.175 81.6104V81.5995L183.22 97.7237L181.821 102.212C181.658 102.718 181.533 103.115 181.446 103.392C181.359 103.67 181.305 103.789 181.305 103.789C181.305 103.789 181.332 103.648 181.408 103.381L181.751 102.19C182.066 101.14 182.518 99.6223 183.089 97.6856C184.264 93.7906 185.934 88.2309 187.952 81.5288V81.556C188.047 79.5178 188.143 77.3781 188.241 75.1368V75.1749C187.931 74.0053 187.61 72.8085 187.289 71.5899L186.799 69.7403C186.717 69.4302 186.636 69.1147 186.549 68.8046C186.502 68.6418 186.464 68.4765 186.435 68.3096C186.415 68.1208 186.454 67.9304 186.549 67.7656C186.65 67.5959 186.805 67.4655 186.989 67.3957C187.172 67.3423 187.365 67.3362 187.551 67.3781C187.736 67.4199 187.908 67.5084 188.05 67.635C188.187 67.7631 188.288 67.9243 188.344 68.1029L189.089 69.9688C189.595 71.22 190.101 72.493 190.618 73.7768L190.417 73.7061C191.39 73.1295 192.37 72.5528 193.403 72.0142C193.665 71.8777 193.933 71.756 194.208 71.6498C194.294 71.614 194.388 71.6009 194.48 71.6117C194.573 71.6251 194.662 71.6585 194.741 71.7096C194.872 71.8036 194.988 71.9174 195.084 72.0469C195.266 72.2849 195.425 72.54 195.557 72.8085C195.628 72.9445 195.693 73.075 195.753 73.211C195.831 73.3551 195.882 73.5116 195.906 73.6734C195.906 74.0597 195.906 74.4187 195.906 74.7614L195.77 74.6146C196.469 74.6193 197.166 74.6995 197.848 74.8539C197.895 74.8703 197.94 74.8903 197.984 74.9138C198.043 74.9463 198.093 74.9954 198.125 75.0552C198.167 75.1435 198.198 75.2367 198.218 75.3326C198.25 75.5067 198.272 75.6699 198.294 75.8386C198.326 76.1704 198.348 76.4968 198.365 76.8232L198.267 76.6926C198.489 76.7579 198.696 76.8678 198.875 77.0155C199.053 77.1633 199.2 77.3459 199.306 77.5522C199.425 77.9656 199.512 78.3875 199.567 78.8143C199.605 79.032 199.605 79.2547 199.567 79.4725C199.543 79.6044 199.474 79.7238 199.371 79.8098C199.282 79.8695 199.189 79.924 199.093 79.973L198.06 80.5115L198.131 80.4082C198.005 81.5451 197.891 82.6603 197.739 83.7646L197.706 83.9768C197.694 84.0627 197.658 84.1436 197.603 84.2107C197.523 84.3298 197.434 84.4426 197.336 84.548C197.151 84.7547 196.966 84.956 196.792 85.1518C196.417 85.5435 196.042 85.9189 195.661 86.2888L195.699 86.2235C194.502 91.2718 193.392 95.9611 192.397 100.155C191.902 102.25 191.429 104.224 190.993 106.052C190.807 106.94 190.567 107.816 190.275 108.674C189.995 109.458 189.65 110.217 189.242 110.943C188.547 112.181 187.651 113.295 186.592 114.24C185.785 114.934 184.792 115.377 183.736 115.512C183.079 115.601 182.41 115.534 181.783 115.317C181.624 115.258 181.469 115.187 181.321 115.104L181.152 115.034Z" fill="#EB996E"/>
<path d="M195.785 74.7177C195.785 74.7558 195.6 74.7775 195.312 74.7884C194.946 74.7954 194.581 74.8391 194.224 74.919C193.879 75.0038 193.561 75.174 193.299 75.414C193.103 75.599 193.016 75.7567 192.973 75.7404C192.929 75.7241 192.973 75.5282 193.152 75.278C193.405 74.9612 193.758 74.7389 194.153 74.647C194.534 74.5531 194.929 74.5346 195.317 74.5926C195.611 74.6306 195.785 74.6796 195.785 74.7177Z" fill="#EB996E"/>
<path d="M194.207 74.7776C194.137 74.7504 194.131 74.5818 194.207 74.4023C194.284 74.2227 194.392 74.0976 194.463 74.1248C194.534 74.152 194.545 74.3207 194.463 74.5002C194.382 74.6797 194.262 74.8048 194.207 74.7776Z" fill="#EB996E"/>
<path d="M198.332 76.753C197.804 76.9164 197.252 76.9917 196.7 76.976C196.526 76.9702 196.353 77.0062 196.196 77.081C196.039 77.1558 195.902 77.2672 195.797 77.4058C195.655 77.6288 195.704 77.8138 195.661 77.8247C195.617 77.8356 195.487 77.6452 195.623 77.3188C195.698 77.135 195.834 76.983 196.009 76.889C196.21 76.7785 196.433 76.7118 196.662 76.6932C197.217 76.6081 197.784 76.6284 198.332 76.753Z" fill="#EB996E"/>
<path d="M197.973 78.711C198.05 78.711 198.093 79.1136 198.071 79.6086C198.05 80.1036 197.968 80.4953 197.892 80.4953C197.816 80.4953 197.767 80.0873 197.788 79.5923C197.81 79.0972 197.892 78.7056 197.973 78.711Z" fill="#EB996E"/>
<path d="M200.23 93.3613L200.715 91.6967C200.737 91.6205 200.778 91.5514 200.835 91.4961C200.892 91.4409 200.963 91.4015 201.04 91.3817C201.116 91.3619 201.197 91.3625 201.274 91.3834C201.35 91.4043 201.42 91.4448 201.476 91.5008L202.113 92.1482L202.504 90.576C202.527 90.4852 202.578 90.4037 202.649 90.3424C202.72 90.2812 202.808 90.2433 202.901 90.2338C202.994 90.2243 203.088 90.2437 203.17 90.2893C203.252 90.335 203.318 90.4047 203.358 90.489L204.245 92.3495L200.23 93.3613Z" fill="white"/>
<path d="M204.255 93.0615C203.647 93.3556 203 93.5643 202.335 93.6817C201.691 93.892 201.021 94.0092 200.344 94.0298C201.596 93.5268 202.913 93.2009 204.255 93.0615Z" fill="white"/>
<path d="M171.904 83.7754C171.904 83.7754 171.702 83.9821 171.419 84.4228C171.04 85.0503 170.79 85.7477 170.685 86.4736C170.53 87.5545 170.497 88.6494 170.587 89.7376C170.647 90.9725 170.745 92.3216 170.897 93.736C171.155 96.1515 171.538 98.552 172.045 100.928C172.235 101.842 172.409 102.56 172.529 103.104C172.584 103.332 172.633 103.523 172.671 103.686C172.709 103.849 172.714 103.893 172.714 103.893C172.714 103.893 172.687 103.827 172.649 103.697C172.611 103.566 172.551 103.338 172.491 103.115C172.355 102.609 172.17 101.88 171.947 100.966C171.418 98.5909 171.024 96.188 170.767 93.7687C170.614 92.3543 170.522 90.9997 170.467 89.7648C170.385 88.6758 170.425 87.5809 170.587 86.5008C170.704 85.7654 170.971 85.0618 171.37 84.4336C171.518 84.1913 171.697 83.9698 171.904 83.7754Z" fill="white"/>
<path d="M183.355 76.3663L183.23 76.4315L182.871 76.6056C182.561 76.7525 182.11 76.9701 181.571 77.2693C180.167 78.0523 178.804 78.9057 177.486 79.8261C175.93 80.9141 174.554 81.9042 173.547 82.6223L172.356 83.4654L172.024 83.6885C171.987 83.7181 171.947 83.7436 171.904 83.7646C171.935 83.7281 171.972 83.6969 172.013 83.6722L172.329 83.4328L173.498 82.557C174.494 81.8226 175.865 80.7999 177.42 79.7336C178.741 78.8092 180.114 77.9628 181.533 77.1986C182.077 76.9103 182.534 76.7035 182.855 76.5675L183.219 76.4152C183.328 76.3771 183.328 76.3608 183.355 76.3663Z" fill="white"/>
<path d="M209.298 79.9081C209.264 79.8892 209.233 79.8653 209.206 79.8374L208.961 79.6252C208.658 79.3693 208.34 79.1313 208.009 78.9126C206.905 78.2084 205.733 77.6162 204.511 77.1446C203.293 76.6621 202.049 76.248 200.785 75.9042C200.295 75.7682 199.903 75.6703 199.626 75.605L199.316 75.5234C199.278 75.5156 199.241 75.5028 199.207 75.4854H199.321L199.637 75.5452C199.914 75.5996 200.311 75.6866 200.801 75.8118C202.077 76.1339 203.331 76.5392 204.555 77.0249C205.783 77.4964 206.957 78.1021 208.052 78.831C208.509 79.1398 208.927 79.5013 209.298 79.9081Z" fill="white"/>
<path d="M183.507 121.431C183.434 121.418 183.362 121.394 183.295 121.36C183.106 121.277 182.924 121.179 182.751 121.067C182.458 120.891 182.203 120.659 181.999 120.385C181.796 120.11 181.648 119.799 181.565 119.467C181.416 118.798 181.491 118.099 181.778 117.476C181.86 117.283 181.966 117.1 182.093 116.932C182.18 116.818 182.24 116.763 182.245 116.769C182.097 117.001 181.964 117.243 181.848 117.492C181.595 118.104 181.537 118.778 181.68 119.424C181.835 120.061 182.223 120.618 182.768 120.985C183.219 121.311 183.518 121.409 183.507 121.431Z" fill="white"/>
<path d="M181.777 115.54C181.893 115.756 181.979 115.987 182.033 116.225C182.118 116.454 182.169 116.694 182.185 116.938C182.062 116.727 181.974 116.498 181.924 116.258C181.835 116.029 181.785 115.786 181.777 115.54Z" fill="white"/>
<path d="M189.133 237.51L205.725 237.428L205.426 180.063L205.268 121.708L182.785 121.42L178.743 129.036C177.089 132.098 176.035 135.447 175.637 138.904C175.365 141.548 177.345 150.143 178.03 152.319L184.216 171.936L189.133 237.51Z" fill="#263238"/>
<path d="M210.136 121.78L228.371 171.485C229.451 174.688 229.81 178.09 229.421 181.447C229.033 184.805 227.907 188.035 226.124 190.906L204.952 232.25L193.049 217.355L210.761 180.363L195.149 155.04L197.776 121.856L205.131 121.736L210.136 121.78Z" fill="#263238"/>
<path d="M203.756 138.432C203.756 138.432 203.756 138.519 203.756 138.687C203.756 138.856 203.783 139.117 203.805 139.438C203.843 140.107 203.892 141.07 203.957 142.316C204.082 144.835 204.256 148.452 204.501 152.918C204.746 157.385 204.953 162.71 205.225 168.64C205.355 171.599 205.497 174.706 205.638 177.926C205.741 179.558 205.698 181.19 205.714 182.822C205.731 184.454 205.714 186.173 205.714 187.881C205.714 201.552 205.758 213.928 205.774 222.899C205.774 227.37 205.774 230.993 205.774 233.512C205.774 234.758 205.774 235.726 205.774 236.401C205.774 236.716 205.774 236.945 205.774 237.151C205.774 237.358 205.774 237.407 205.774 237.407C205.774 237.407 205.774 237.32 205.774 237.151V236.401C205.774 235.726 205.774 234.769 205.741 233.512C205.741 230.993 205.698 227.376 205.665 222.904C205.627 213.933 205.578 201.557 205.524 187.887C205.524 186.179 205.524 184.492 205.524 182.827C205.524 181.163 205.557 179.52 205.453 177.931C205.317 174.716 205.181 171.61 205.056 168.651C204.806 162.732 204.577 157.406 204.392 152.924C204.207 148.441 204.071 144.84 203.968 142.321C203.925 141.081 203.892 140.113 203.87 139.438C203.87 139.117 203.87 138.894 203.87 138.687C203.87 138.481 203.756 138.432 203.756 138.432Z" fill="#455A64"/>
<path d="M203.336 122.759C203.4 122.934 203.438 123.117 203.45 123.303C203.51 123.651 203.575 124.157 203.651 124.788C203.793 126.045 203.945 127.791 204.032 129.722C204.119 131.653 204.125 133.405 204.098 134.672C204.098 135.303 204.059 135.82 204.032 136.174C204.038 136.357 204.016 136.541 203.967 136.718C203.899 136.038 203.875 135.355 203.896 134.672C203.896 133.405 203.836 131.664 203.749 129.733C203.662 127.802 203.543 126.066 203.45 124.837C203.373 124.147 203.335 123.453 203.336 122.759Z" fill="#455A64"/>
<path d="M199.682 123.879C199.709 123.917 199.399 124.058 199.312 124.499C199.288 124.619 199.294 124.742 199.331 124.859C199.369 124.975 199.435 125.08 199.524 125.163C199.632 125.263 199.766 125.33 199.911 125.356C200.055 125.382 200.204 125.366 200.34 125.31C200.47 125.242 200.579 125.14 200.654 125.014C200.729 124.888 200.767 124.744 200.764 124.597C200.759 124.475 200.723 124.357 200.659 124.253C200.596 124.149 200.506 124.063 200.4 124.004C200.179 123.897 199.932 123.854 199.687 123.879C199.687 123.879 199.742 123.808 199.883 123.765C200.087 123.715 200.302 123.736 200.492 123.825C200.644 123.888 200.776 123.992 200.872 124.125C200.968 124.259 201.025 124.417 201.036 124.581C201.058 124.783 201.016 124.987 200.915 125.165C200.814 125.342 200.661 125.483 200.476 125.568C200.291 125.653 200.084 125.679 199.884 125.64C199.684 125.601 199.501 125.501 199.361 125.353C199.245 125.238 199.163 125.094 199.124 124.936C199.085 124.777 199.089 124.611 199.138 124.456C199.192 124.252 199.315 124.073 199.486 123.95C199.595 123.873 199.676 123.863 199.682 123.879Z" fill="#455A64"/>
<path d="M190.977 122.895C191.057 123.066 191.107 123.25 191.124 123.439C191.211 123.927 191.228 124.425 191.173 124.918C191.094 125.652 190.882 126.366 190.547 127.023C190.142 127.842 189.542 128.548 188.8 129.08C188.059 129.612 187.198 129.954 186.293 130.075C185.569 130.183 184.831 130.156 184.117 129.994C183.634 129.889 183.168 129.715 182.735 129.477C182.571 129.399 182.421 129.297 182.289 129.172C182.89 129.443 183.517 129.652 184.16 129.798C184.934 129.959 185.733 129.957 186.506 129.794C187.279 129.631 188.01 129.309 188.653 128.849C189.295 128.389 189.835 127.801 190.239 127.121C190.643 126.442 190.902 125.686 190.999 124.902C191.062 124.234 191.055 123.561 190.977 122.895Z" fill="#455A64"/>
<path d="M212.323 127.661C211.968 127.701 211.608 127.659 211.273 127.535C210.451 127.277 209.713 126.803 209.135 126.165C208.552 125.529 208.151 124.747 207.976 123.901C207.891 123.557 207.891 123.196 207.976 122.852C208.025 122.852 208.031 123.249 208.194 123.858C208.414 124.645 208.815 125.37 209.365 125.976C209.915 126.581 210.598 127.05 211.36 127.345C211.926 127.568 212.328 127.606 212.323 127.661Z" fill="#455A64"/>
<path d="M218.803 181.244C218.531 181.555 218.205 181.815 217.84 182.011C217.458 182.253 217.042 182.436 216.606 182.555C216.056 182.7 215.477 182.685 214.936 182.511C213.985 182.153 213.171 181.506 212.607 180.662C212.348 180.344 212.134 179.993 211.971 179.617C212.264 179.897 212.53 180.205 212.765 180.537C213.343 181.303 214.123 181.892 215.017 182.239C215.474 182.361 215.95 182.389 216.418 182.321C216.886 182.252 217.334 182.089 217.737 181.842C218.081 181.622 218.437 181.423 218.803 181.244Z" fill="#455A64"/>
<path d="M214.646 184.416C214.003 183.75 213.429 183.021 212.932 182.24C212.36 181.513 211.861 180.731 211.441 179.906C212.089 180.57 212.665 181.299 213.16 182.082C213.737 182.805 214.235 183.587 214.646 184.416Z" fill="#455A64"/>
<path d="M186.772 140.352C186.696 140.379 186.505 140.069 186.337 139.65C186.168 139.231 186.097 138.878 186.168 138.845C186.239 138.812 186.434 139.128 186.598 139.547C186.761 139.966 186.842 140.352 186.772 140.352Z" fill="#FAFAFA"/>
<path d="M197.304 141.864C197.222 141.864 197.162 141.598 197.162 141.266C197.162 140.934 197.222 140.662 197.304 140.662C197.385 140.662 197.445 140.934 197.445 141.266C197.445 141.598 197.38 141.864 197.304 141.864Z" fill="#FAFAFA"/>
<path d="M192.974 147.587C192.898 147.587 192.811 147.261 192.784 146.842C192.756 146.423 192.784 146.086 192.871 146.08C192.958 146.075 193.039 146.407 193.066 146.825C193.094 147.244 193.05 147.582 192.974 147.587Z" fill="#FAFAFA"/>
<path d="M185.064 151.775C184.998 151.824 184.775 151.623 184.482 151.416C184.188 151.21 183.938 151.052 183.938 150.976C183.938 150.899 184.297 150.943 184.628 151.182C184.96 151.422 185.129 151.775 185.064 151.775Z" fill="#FAFAFA"/>
<path d="M199.007 157.112C198.942 157.069 199.007 156.835 199.192 156.568C199.377 156.302 199.546 156.149 199.611 156.193C199.676 156.236 199.611 156.476 199.426 156.737C199.241 156.998 199.072 157.156 199.007 157.112Z" fill="#FAFAFA"/>
<path d="M190.401 158.619C190.325 158.619 190.26 158.167 190.26 157.618C190.26 157.068 190.325 156.611 190.401 156.611C190.477 156.611 190.543 157.063 190.543 157.618C190.543 158.173 190.461 158.619 190.401 158.619Z" fill="#FAFAFA"/>
<path d="M187.582 164.722C187.538 164.782 187.255 164.657 186.951 164.434C186.646 164.211 186.407 163.983 186.477 163.917C186.548 163.852 186.809 163.983 187.114 164.206C187.418 164.429 187.631 164.657 187.582 164.722Z" fill="#FAFAFA"/>
<path d="M196.297 166.845C196.33 166.915 196.156 167.062 195.906 167.176C195.656 167.291 195.427 167.318 195.394 167.247C195.362 167.176 195.541 167.029 195.792 166.915C196.042 166.801 196.27 166.774 196.297 166.845Z" fill="#FAFAFA"/>
<path d="M190.4 176.799C190.335 176.832 190.052 176.413 189.774 175.858C189.497 175.303 189.328 174.825 189.399 174.77C189.47 174.716 189.753 175.156 190.025 175.711C190.297 176.266 190.449 176.739 190.4 176.799Z" fill="#FAFAFA"/>
<path d="M200.012 175.874C199.941 175.836 200.066 175.472 200.284 175.053C200.502 174.634 200.746 174.329 200.828 174.367C200.91 174.406 200.774 174.77 200.551 175.189C200.328 175.608 200.077 175.912 200.012 175.874Z" fill="#FAFAFA"/>
<path d="M195.797 184.302C195.715 184.302 195.726 183.861 195.639 183.35C195.552 182.838 195.421 182.43 195.498 182.392C195.574 182.354 195.835 182.74 195.922 183.306C196.009 183.872 195.873 184.318 195.797 184.302Z" fill="#FAFAFA"/>
<path d="M191.282 189.116C191.228 189.17 190.956 188.964 190.678 188.659C190.401 188.354 190.221 188.066 190.281 188.012C190.341 187.957 190.607 188.164 190.885 188.469C191.162 188.773 191.342 189.062 191.282 189.116Z" fill="#FAFAFA"/>
<path d="M202.237 190.943C202.183 190.889 202.384 190.595 202.689 190.285C202.994 189.975 203.276 189.774 203.336 189.828C203.396 189.883 203.189 190.182 202.89 190.486C202.591 190.791 202.297 190.998 202.237 190.943Z" fill="#FAFAFA"/>
<path d="M195.938 198.152C195.862 198.152 195.862 197.722 195.938 197.221C196.014 196.721 196.134 196.329 196.215 196.34C196.297 196.351 196.292 196.764 196.215 197.265C196.139 197.765 196.014 198.162 195.938 198.152Z" fill="#FAFAFA"/>
<path d="M191.7 201.65C191.629 201.688 191.39 201.405 191.156 201.019C190.922 200.632 190.802 200.29 190.867 200.252C190.933 200.213 191.172 200.491 191.411 200.877C191.651 201.263 191.765 201.606 191.7 201.65Z" fill="#FAFAFA"/>
<path d="M201.911 206.061C201.96 206.126 201.683 206.404 201.291 206.681C200.899 206.958 200.556 207.133 200.507 207.067C200.459 207.002 200.741 206.725 201.128 206.447C201.514 206.17 201.867 206.001 201.911 206.061Z" fill="#FAFAFA"/>
<path d="M193.403 211.79C193.327 211.763 193.403 211.327 193.474 210.783C193.544 210.239 193.501 209.793 193.582 209.782C193.664 209.772 193.805 210.228 193.751 210.811C193.697 211.393 193.473 211.822 193.403 211.79Z" fill="#FAFAFA"/>
<path d="M196.802 220.015C196.737 220.064 196.509 219.879 196.286 219.602C196.063 219.324 195.937 219.058 195.997 219.009C196.057 218.96 196.286 219.145 196.509 219.422C196.732 219.7 196.862 219.966 196.802 220.015Z" fill="#FAFAFA"/>
<path d="M193.088 225.531C193.023 225.574 192.723 225.253 192.419 224.807C192.114 224.361 191.924 223.969 191.984 223.926C192.043 223.882 192.348 224.203 192.653 224.649C192.957 225.095 193.153 225.487 193.088 225.531Z" fill="#FAFAFA"/>
<path d="M203.321 218.606C203.25 218.579 203.255 218.378 203.321 218.16C203.386 217.943 203.533 217.779 203.609 217.807C203.685 217.834 203.674 218.035 203.609 218.258C203.544 218.481 203.397 218.639 203.321 218.606Z" fill="#FAFAFA"/>
<path d="M198.805 231.744C198.734 231.706 198.87 231.319 198.979 230.835C199.088 230.351 199.126 229.943 199.207 229.938C199.289 229.932 199.37 230.373 199.256 230.895C199.142 231.417 198.87 231.787 198.805 231.744Z" fill="#FAFAFA"/>
<path d="M201.742 147.673C201.671 147.706 201.497 147.488 201.356 147.184C201.214 146.879 201.154 146.607 201.225 146.575C201.296 146.542 201.47 146.759 201.611 147.064C201.753 147.369 201.824 147.641 201.742 147.673Z" fill="#FAFAFA"/>
<path d="M194.208 130.734C194.251 130.799 193.87 131.104 193.462 131.539C193.054 131.974 192.777 132.377 192.706 132.339C192.635 132.301 192.82 131.795 193.25 131.349C193.68 130.903 194.153 130.663 194.208 130.734Z" fill="#FAFAFA"/>
<path d="M200.915 130.559C200.833 130.559 200.708 130.249 200.518 129.879C200.327 129.509 200.153 129.205 200.213 129.15C200.273 129.096 200.567 129.335 200.757 129.749C200.948 130.162 200.986 130.516 200.915 130.559Z" fill="#FAFAFA"/>
<path d="M179.973 136.059C179.902 136.026 179.973 135.667 180.141 135.254C180.31 134.84 180.495 134.519 180.571 134.552C180.647 134.585 180.571 134.938 180.402 135.357C180.234 135.776 180.065 136.086 179.973 136.059Z" fill="#FAFAFA"/>
<path d="M180.652 144.274C180.598 144.334 180.288 144.16 179.956 143.882C179.624 143.605 179.412 143.338 179.445 143.273C179.477 143.208 179.809 143.387 180.141 143.665C180.473 143.942 180.701 144.214 180.652 144.274Z" fill="#FAFAFA"/>
<path d="M194.393 124.211C194.322 124.211 194.17 124.037 194.061 123.76C193.953 123.482 193.92 123.216 193.991 123.216C194.061 123.216 194.214 123.39 194.322 123.667C194.431 123.945 194.464 124.184 194.393 124.211Z" fill="#FAFAFA"/>
<path d="M207.553 128.225C207.477 128.225 207.482 127.883 207.553 127.496C207.624 127.11 207.765 126.806 207.841 126.822C207.918 126.838 207.912 127.17 207.841 127.556C207.771 127.943 207.629 128.242 207.553 128.225Z" fill="#FAFAFA"/>
<path d="M210.642 134.444C210.571 134.411 210.669 134.009 210.865 133.536C211.061 133.062 211.273 132.709 211.344 132.736C211.415 132.763 211.344 133.171 211.126 133.644C210.909 134.118 210.718 134.471 210.642 134.444Z" fill="#FAFAFA"/>
<path d="M208.439 139.459C208.368 139.492 208.107 139.117 207.857 138.622C207.606 138.127 207.465 137.686 207.536 137.653C207.606 137.621 207.862 137.996 208.112 138.491C208.363 138.986 208.51 139.421 208.439 139.459Z" fill="#FAFAFA"/>
<path d="M213.151 144.475C213.081 144.448 213.151 144.133 213.271 143.774C213.391 143.415 213.581 143.143 213.657 143.17C213.733 143.197 213.657 143.513 213.537 143.872C213.418 144.231 213.249 144.503 213.151 144.475Z" fill="#FAFAFA"/>
<path d="M208.939 149.387C208.874 149.431 208.706 149.284 208.57 149.066C208.434 148.849 208.368 148.631 208.439 148.588C208.51 148.544 208.667 148.691 208.809 148.914C208.95 149.137 209.005 149.349 208.939 149.387Z" fill="#FAFAFA"/>
<path d="M209.837 159.527C209.782 159.576 209.439 159.31 209.08 158.918C208.721 158.526 208.477 158.173 208.536 158.118C208.596 158.064 208.933 158.336 209.293 158.728C209.652 159.119 209.896 159.473 209.837 159.527Z" fill="#FAFAFA"/>
<path d="M215.359 153.701C215.299 153.75 215 153.478 214.696 153.086C214.391 152.695 214.195 152.347 214.255 152.298C214.315 152.249 214.614 152.526 214.919 152.912C215.223 153.299 215.424 153.658 215.359 153.701Z" fill="#FAFAFA"/>
<path d="M218.389 161.736C218.318 161.703 218.443 161.295 218.666 160.828C218.889 160.36 219.123 160.001 219.21 160.033C219.297 160.066 219.161 160.479 218.938 160.947C218.715 161.415 218.46 161.774 218.389 161.736Z" fill="#FAFAFA"/>
<path d="M211.949 168.352C211.878 168.39 211.628 168.091 211.279 167.77C210.931 167.449 210.61 167.226 210.643 167.144C210.676 167.062 211.089 167.209 211.47 167.563C211.851 167.917 212.014 168.314 211.949 168.352Z" fill="#FAFAFA"/>
<path d="M212.351 175.168C212.351 175.244 212.079 175.309 211.747 175.309C211.415 175.309 211.148 175.244 211.148 175.168C211.148 175.092 211.415 175.026 211.747 175.026C212.079 175.026 212.351 175.092 212.351 175.168Z" fill="#FAFAFA"/>
<path d="M218.972 173.264C218.901 173.226 219.043 172.883 219.146 172.459C219.25 172.035 219.293 171.665 219.375 171.659C219.456 171.654 219.543 172.051 219.424 172.524C219.304 172.997 219.032 173.308 218.972 173.264Z" fill="#FAFAFA"/>
<path d="M225.549 175.554C225.478 175.581 225.277 175.195 225.103 174.7C224.929 174.205 224.847 173.78 224.918 173.759C224.989 173.737 225.195 174.112 225.37 174.607C225.544 175.102 225.625 175.527 225.549 175.554Z" fill="#FAFAFA"/>
<path d="M224.498 184.911C224.433 184.873 224.602 184.416 224.874 183.888C225.146 183.361 225.418 182.963 225.499 183.002C225.581 183.04 225.401 183.497 225.124 184.019C224.847 184.541 224.569 184.96 224.498 184.911Z" fill="#FAFAFA"/>
<path d="M218.498 190.4C218.427 190.427 218.204 190.052 217.997 189.556C217.791 189.061 217.687 188.637 217.763 188.604C217.839 188.572 218.057 188.953 218.258 189.448C218.46 189.943 218.568 190.4 218.498 190.4Z" fill="#FAFAFA"/>
<path d="M211.85 192.526C211.85 192.602 211.622 192.668 211.344 192.668C211.067 192.668 210.844 192.602 210.844 192.526C210.844 192.45 211.072 192.385 211.344 192.385C211.616 192.385 211.85 192.45 211.85 192.526Z" fill="#FAFAFA"/>
<path d="M215.659 201.279C215.588 201.279 215.436 200.98 215.321 200.567C215.207 200.153 215.185 199.794 215.262 199.778C215.338 199.762 215.485 200.077 215.599 200.491C215.713 200.904 215.735 201.236 215.659 201.279Z" fill="#FAFAFA"/>
<path d="M210.843 198.342C210.778 198.304 210.843 198.048 211.023 197.771C211.202 197.493 211.382 197.303 211.447 197.341C211.512 197.379 211.447 197.64 211.267 197.917C211.088 198.195 210.914 198.385 210.843 198.342Z" fill="#FAFAFA"/>
<path d="M210.746 207.976C210.67 207.976 210.561 207.611 210.507 207.138C210.452 206.665 210.469 206.279 210.545 206.268C210.621 206.257 210.73 206.632 210.784 207.106C210.838 207.579 210.822 207.965 210.746 207.976Z" fill="#FAFAFA"/>
</svg>
