<svg width="22" height="23" viewBox="0 0 22 23" fill="none" xmlns="http://www.w3.org/2000/svg">
<path d="M19.6432 11.2677H19.6202L17.8006 6.98763C17.6306 6.58854 17.3536 6.24948 17.0032 6.01147C16.6527 5.77346 16.2438 5.64669 15.8259 5.64648H6.17473C5.75685 5.64672 5.34799 5.7735 4.99758 6.01151C4.64717 6.24953 4.37023 6.58857 4.20024 6.98763L2.38047 11.2677H2.35747C1.97556 11.2682 1.60942 11.427 1.33937 11.7093C1.06932 11.9916 0.917421 12.3744 0.916992 12.7736V18.0441C0.917421 18.4433 1.06932 18.8261 1.33937 19.1084C1.60942 19.3907 1.97556 19.5495 2.35747 19.5499V21.4579C2.3578 21.7574 2.47173 22.0444 2.67427 22.2561C2.8768 22.4679 3.1514 22.587 3.43783 22.5873H5.95866C6.24508 22.587 6.51968 22.4679 6.72222 22.2561C6.92475 22.0444 7.03868 21.7574 7.03902 21.4579V19.5499H14.9616V21.4579C14.962 21.7574 15.0759 22.0444 15.2784 22.2561C15.481 22.4679 15.7556 22.587 16.042 22.5873H18.5628C18.8493 22.587 19.1238 22.4679 19.3264 22.2561C19.5289 22.0444 19.6428 21.7574 19.6432 21.4579V19.5499C20.0251 19.5495 20.3912 19.3907 20.6613 19.1084C20.9313 18.8261 21.0832 18.4433 21.0837 18.0441V12.7736C21.0832 12.3744 20.9313 11.9916 20.6613 11.7093C20.3912 11.427 20.0251 11.2682 19.6432 11.2677ZM5.51639 7.59939C5.57306 7.46633 5.6654 7.35329 5.78224 7.27395C5.89908 7.19461 6.03541 7.15237 6.17473 7.15234H15.8259C15.9652 7.15241 16.1015 7.19467 16.2183 7.27401C16.3351 7.35335 16.4274 7.46636 16.4841 7.59939L18.0437 11.2677H3.9568L5.51639 7.59939ZM5.59854 21.0815H3.79794V19.5499H5.59854V21.0815ZM18.2027 21.0815H16.4021V19.5499H18.2027V21.0815ZM19.6432 18.0441H2.35747V12.7736H19.6432V18.0441Z" fill="black"/>
<path d="M3.66667 14.5167H7.33333V15.9997H3.66667V14.5167ZM14.6667 14.5167H18.3333V15.9997H14.6667V14.5167ZM11 0L0 4.46579V6.06385L11 1.59811L22 6.06385V4.46579L11 0Z" fill="black"/>
</svg>
