<svg width="20" height="21" viewBox="0 0 20 21" fill="none" xmlns="http://www.w3.org/2000/svg">
<path d="M19.2828 15.3774L17.2516 20.2524C17.1903 20.4014 17.0862 20.5288 16.9524 20.6185C16.8186 20.7082 16.6611 20.7561 16.5 20.7561C16.3389 20.7561 16.1814 20.7082 16.0476 20.6185C15.9138 20.5288 15.8097 20.4014 15.7484 20.2524L13.7172 15.3774C13.6758 15.2787 13.6543 15.1728 13.6539 15.0658C13.6535 14.9588 13.6741 14.8527 13.7147 14.7537C13.7552 14.6547 13.8149 14.5646 13.8903 14.4886C13.9656 14.4127 14.0552 14.3523 14.1539 14.3109C14.2526 14.2696 14.3585 14.2481 14.4655 14.2477C14.5725 14.2472 14.6785 14.2679 14.7776 14.3084C14.8766 14.349 14.9667 14.4087 15.0426 14.484C15.1186 14.5594 15.179 14.649 15.2203 14.7477L16.5 17.825L17.7797 14.7477C17.821 14.649 17.8814 14.5594 17.9574 14.484C18.0334 14.4087 18.1234 14.349 18.2224 14.3084C18.3215 14.2679 18.4275 14.2472 18.5345 14.2477C18.6415 14.2481 18.7474 14.2696 18.8461 14.3109C18.9448 14.3523 19.0344 14.4127 19.1097 14.4886C19.1851 14.5646 19.2448 14.6547 19.2853 14.7537C19.3259 14.8527 19.3465 14.9588 19.3461 15.0658C19.3457 15.1728 19.3242 15.2787 19.2828 15.3774ZM3.70313 15.875C4.02694 15.8782 4.3381 16.0012 4.57656 16.2203C4.65528 16.293 4.74774 16.3491 4.8485 16.3855C4.94926 16.4218 5.05628 16.4376 5.16324 16.4319C5.27021 16.4262 5.37495 16.3992 5.47129 16.3524C5.56764 16.3056 5.65364 16.24 5.72422 16.1594C5.86963 16.0004 5.94596 15.7903 5.93644 15.575C5.92691 15.3598 5.83232 15.1572 5.67344 15.0117C5.13192 14.5254 4.43095 14.2544 3.70313 14.25C2.02734 14.25 0.65625 15.7125 0.65625 17.5C0.65625 19.2875 2.02734 20.75 3.70313 20.75C4.43095 20.7456 5.13192 20.4746 5.67344 19.9883C5.83232 19.8428 5.92691 19.6402 5.93644 19.425C5.94596 19.2098 5.86963 18.9996 5.72422 18.8406C5.65364 18.7601 5.56764 18.6944 5.47129 18.6476C5.37495 18.6008 5.27021 18.5738 5.16324 18.5681C5.05628 18.5624 4.94926 18.5782 4.8485 18.6146C4.74774 18.6509 4.65528 18.7071 4.57656 18.7797C4.3381 18.9988 4.02694 19.1218 3.70313 19.125C2.92109 19.125 2.28125 18.3938 2.28125 17.5C2.28125 16.6063 2.92109 15.875 3.70313 15.875ZM17.3125 7.75001H12.4375C12.222 7.75001 12.0153 7.66441 11.863 7.51204C11.7106 7.35966 11.625 7.153 11.625 6.93751V2.06251H2.6875V11C2.6875 11.2155 2.6019 11.4222 2.44952 11.5745C2.29715 11.7269 2.09049 11.8125 1.875 11.8125C1.65951 11.8125 1.45285 11.7269 1.30048 11.5745C1.1481 11.4222 1.0625 11.2155 1.0625 11V2.06251C1.0625 1.63154 1.2337 1.21821 1.53845 0.913464C1.8432 0.608718 2.25652 0.437513 2.6875 0.437513H12.4375C12.6537 0.436294 12.8616 0.520207 13.0164 0.671107L18.6938 6.35861C18.7717 6.43338 18.8335 6.52331 18.8755 6.62287C18.9174 6.72242 18.9385 6.8295 18.9375 6.93751V11C18.9375 11.2155 18.8519 11.4222 18.6995 11.5745C18.5472 11.7269 18.3405 11.8125 18.125 11.8125C17.9095 11.8125 17.7029 11.7269 17.5505 11.5745C17.3981 11.4222 17.3125 11.2155 17.3125 11V7.75001ZM13.25 6.12501H16.1648L13.25 3.21017V6.12501ZM10.1727 16.6672C9.85781 16.5859 9.29922 16.4336 9.1875 16.3016V16.2813C9.1875 15.9461 9.43125 15.7734 9.89844 15.7734C10.2614 15.7808 10.6143 15.8938 10.9141 16.0984H10.9039C11.0513 16.2155 11.2337 16.2799 11.4219 16.2813C11.6374 16.2813 11.844 16.1957 11.9964 16.0433C12.1488 15.8909 12.2344 15.6842 12.2344 15.4688C12.2364 15.3498 12.2108 15.2319 12.1597 15.1245C12.1086 15.017 12.0334 14.9228 11.9398 14.8492C11.3538 14.3996 10.6371 14.1536 9.89844 14.1484C8.52734 14.1484 7.5625 15.0219 7.5625 16.2813C7.5625 17.5406 8.88281 18.0078 9.75625 18.2414C10.1016 18.3328 10.4672 18.4242 10.6906 18.5563C10.9141 18.6883 10.8125 18.6578 10.8125 18.7188C10.8125 18.7797 10.8125 19.2266 9.89844 19.2266C9.53552 19.2192 9.1826 19.1062 8.88281 18.9016H8.89297C8.74557 18.7845 8.56322 18.7202 8.375 18.7188C8.15951 18.7188 7.95285 18.8044 7.80048 18.9567C7.6481 19.1091 7.5625 19.3158 7.5625 19.5313C7.56052 19.6502 7.58607 19.7681 7.63716 19.8755C7.68825 19.983 7.7635 20.0772 7.85703 20.1508C8.44306 20.6004 9.15982 20.8465 9.89844 20.8516C11.4828 20.8516 12.4375 20.0492 12.4375 18.7188C12.4375 17.3883 11.0156 16.8906 10.1727 16.6672Z" fill="black"/>
</svg>
