<svg width="21" height="21" viewBox="0 0 21 21" fill="none" xmlns="http://www.w3.org/2000/svg">
<path d="M7.25 1.75C7.92987 1.75 8.59448 1.95161 9.15977 2.32932C9.72507 2.70704 10.1657 3.2439 10.4258 3.87203C10.686 4.50015 10.7541 5.19131 10.6214 5.85812C10.4888 6.52493 10.1614 7.13744 9.68068 7.61818C9.19994 8.09892 8.58743 8.42631 7.92062 8.55895C7.25381 8.69159 6.56265 8.62351 5.93453 8.36334C5.30641 8.10316 4.76954 7.66257 4.39182 7.09727C4.01411 6.53198 3.8125 5.86737 3.8125 5.1875C3.8125 4.27582 4.17466 3.40148 4.81932 2.75682C5.46398 2.11216 6.33832 1.75 7.25 1.75ZM7.25 0.375C6.29818 0.375 5.36773 0.657248 4.57632 1.18605C3.78491 1.71486 3.16808 2.46647 2.80383 3.34584C2.43958 4.22521 2.34428 5.19284 2.52997 6.12637C2.71566 7.05991 3.17401 7.91741 3.84705 8.59045C4.52009 9.26349 5.37759 9.72184 6.31113 9.90753C7.24466 10.0932 8.2123 9.99792 9.09166 9.63367C9.97103 9.26942 10.7226 8.65259 11.2514 7.86118C11.7803 7.06977 12.0625 6.13932 12.0625 5.1875C12.0625 3.91115 11.5555 2.68707 10.653 1.78455C9.75043 0.88203 8.52635 0.375 7.25 0.375ZM14.125 21H12.75V17.5625C12.75 16.6508 12.3878 15.7765 11.7432 15.1318C11.0985 14.4872 10.2242 14.125 9.3125 14.125H5.1875C4.27582 14.125 3.40148 14.4872 2.75682 15.1318C2.11216 15.7765 1.75 16.6508 1.75 17.5625V21H0.375V17.5625C0.375 16.2861 0.88203 15.0621 1.78455 14.1595C2.68707 13.257 3.91115 12.75 5.1875 12.75H9.3125C10.5889 12.75 11.8129 13.257 12.7155 14.1595C13.618 15.0621 14.125 16.2861 14.125 17.5625V21ZM16.1875 11.4988L14.4069 9.71813L13.4375 9.3125L16.1875 12.0625L21 7.25L20.0306 6.28063L16.1875 10.1238V11.4988Z" fill="black"/>
</svg>
