<svg width="24" height="21" viewBox="0 0 24 21" fill="none" xmlns="http://www.w3.org/2000/svg">
<path d="M2.21875 9.46875H22.8438C23.1173 9.46875 23.3796 9.5774 23.573 9.7708C23.7664 9.96419 23.875 10.2265 23.875 10.5C23.875 10.7735 23.7664 11.0358 23.573 11.2292C23.3796 11.4226 23.1173 11.5312 22.8438 11.5312H2.21875C1.94525 11.5312 1.68294 11.4226 1.48955 11.2292C1.29615 11.0358 1.1875 10.7735 1.1875 10.5C1.1875 10.2265 1.29615 9.96419 1.48955 9.7708C1.68294 9.5774 1.94525 9.46875 2.21875 9.46875Z" fill="black"/>
<path d="M2.64558 10.5003L11.1988 19.0515C11.3924 19.2451 11.5012 19.5077 11.5012 19.7816C11.5012 20.0554 11.3924 20.3181 11.1988 20.5117C11.0051 20.7053 10.7425 20.8141 10.4686 20.8141C10.1948 20.8141 9.93216 20.7053 9.73851 20.5117L0.457265 11.2305C0.361229 11.1347 0.285034 11.0209 0.233046 10.8956C0.181058 10.7703 0.154297 10.636 0.154297 10.5003C0.154297 10.3647 0.181058 10.2304 0.233046 10.1051C0.285034 9.9798 0.361229 9.86599 0.457265 9.7702L9.73851 0.488951C9.93216 0.29531 10.1948 0.186523 10.4686 0.186523C10.7425 0.186523 11.0051 0.29531 11.1988 0.488951C11.3924 0.682592 11.5012 0.945226 11.5012 1.21908C11.5012 1.49293 11.3924 1.75556 11.1988 1.9492L2.64558 10.5003Z" fill="black"/>
</svg>
