<svg width="22" height="22" viewBox="0 0 22 22" fill="none" xmlns="http://www.w3.org/2000/svg">
<path d="M8.25 2.75C8.92987 2.75 9.59448 2.95161 10.1598 3.32932C10.7251 3.70704 11.1657 4.2439 11.4258 4.87203C11.686 5.50015 11.7541 6.19131 11.6214 6.85812C11.4888 7.52493 11.1614 8.13744 10.6807 8.61818C10.1999 9.09892 9.58743 9.42631 8.92062 9.55895C8.25381 9.69159 7.56265 9.62351 6.93453 9.36334C6.3064 9.10316 5.76954 8.66257 5.39182 8.09727C5.01411 7.53198 4.8125 6.86737 4.8125 6.1875C4.8125 5.27582 5.17466 4.40148 5.81932 3.75682C6.46398 3.11216 7.33832 2.75 8.25 2.75M8.25 1.375C7.29818 1.375 6.36773 1.65725 5.57632 2.18605C4.78491 2.71486 4.16808 3.46647 3.80383 4.34584C3.43958 5.22521 3.34428 6.19284 3.52997 7.12637C3.71566 8.05991 4.17401 8.91741 4.84705 9.59045C5.52009 10.2635 6.37759 10.7218 7.31113 10.9075C8.24466 11.0932 9.21229 10.9979 10.0917 10.6337C10.971 10.2694 11.7226 9.65259 12.2514 8.86118C12.7803 8.06977 13.0625 7.13932 13.0625 6.1875C13.0625 4.91115 12.5555 3.68707 11.653 2.78455C10.7504 1.88203 9.52635 1.375 8.25 1.375V1.375ZM15.125 22H13.75V18.5625C13.75 17.6508 13.3878 16.7765 12.7432 16.1318C12.0985 15.4872 11.2242 15.125 10.3125 15.125H6.1875C5.27582 15.125 4.40148 15.4872 3.75682 16.1318C3.11216 16.7765 2.75 17.6508 2.75 18.5625V22H1.375V18.5625C1.375 17.2861 1.88203 16.0621 2.78455 15.1595C3.68707 14.257 4.91115 13.75 6.1875 13.75H10.3125C11.5889 13.75 12.8129 14.257 13.7155 15.1595C14.618 16.0621 15.125 17.2861 15.125 18.5625V22ZM17.1875 12.4988L15.4069 10.7181L14.4375 10.3125L17.1875 13.0625L22 8.25L21.0306 7.28063L17.1875 11.1238V12.4988Z" fill="white"/>
</svg>
