<svg width="26" height="26" viewBox="0 0 26 26" fill="none" xmlns="http://www.w3.org/2000/svg">
<path d="M13.3242 18L18.2995 13L13.3242 8L11.5828 9.75L13.5729 11.75H8.3488V14.25H13.5729L11.5828 16.25L13.3242 18ZM13.3242 25.5C11.6035 25.5 9.98652 25.1717 8.47318 24.515C6.95984 23.8592 5.64344 22.9688 4.52398 21.8438C3.40452 20.7188 2.51849 19.3958 1.86589 17.875C1.21246 16.3542 0.885742 14.7292 0.885742 13C0.885742 11.2708 1.21246 9.64583 1.86589 8.125C2.51849 6.60417 3.40452 5.28125 4.52398 4.15625C5.64344 3.03125 6.95984 2.14042 8.47318 1.48375C9.98652 0.827917 11.6035 0.5 13.3242 0.5C15.0448 0.5 16.6618 0.827917 18.1752 1.48375C19.6885 2.14042 21.0049 3.03125 22.1244 4.15625C23.2438 5.28125 24.1298 6.60417 24.7824 8.125C25.4359 9.64583 25.7626 11.2708 25.7626 13C25.7626 14.7292 25.4359 16.3542 24.7824 17.875C24.1298 19.3958 23.2438 20.7188 22.1244 21.8438C21.0049 22.9688 19.6885 23.8592 18.1752 24.515C16.6618 25.1717 15.0448 25.5 13.3242 25.5Z" fill="black"/>
</svg>
