<svg width="24" height="21" viewBox="0 0 24 21" fill="none" xmlns="http://www.w3.org/2000/svg">
<path d="M2.21875 9.46875H22.8438C23.1173 9.46875 23.3796 9.5774 23.573 9.7708C23.7664 9.96419 23.875 10.2265 23.875 10.5C23.875 10.7735 23.7664 11.0358 23.573 11.2292C23.3796 11.4226 23.1173 11.5312 22.8438 11.5312H2.21875C1.94525 11.5312 1.68294 11.4226 1.48955 11.2292C1.29615 11.0358 1.1875 10.7735 1.1875 10.5C1.1875 10.2265 1.29615 9.96419 1.48955 9.7708C1.68294 9.5774 1.94525 9.46875 2.21875 9.46875Z" fill="black"/>
<path d="M2.64558 10.5L11.1988 19.0511C11.3924 19.2447 11.5012 19.5074 11.5012 19.7812C11.5012 20.0551 11.3924 20.3177 11.1988 20.5113C11.0051 20.705 10.7425 20.8138 10.4686 20.8138C10.1948 20.8138 9.93216 20.705 9.73851 20.5113L0.457265 11.2301C0.361229 11.1343 0.285034 11.0205 0.233046 10.8952C0.181058 10.7699 0.154297 10.6356 0.154297 10.5C0.154297 10.3643 0.181058 10.23 0.233046 10.1047C0.285034 9.97943 0.361229 9.86563 0.457265 9.76983L9.73851 0.488585C9.93216 0.294943 10.1948 0.186157 10.4686 0.186157C10.7425 0.186157 11.0051 0.294943 11.1988 0.488585C11.3924 0.682226 11.5012 0.94486 11.5012 1.21871C11.5012 1.49256 11.3924 1.75519 11.1988 1.94884L2.64558 10.5Z" fill="black"/>
</svg>
