<svg width="23" height="19" viewBox="0 0 23 19" fill="none" xmlns="http://www.w3.org/2000/svg">
<path d="M0.53125 0.21875V15.4062C0.53125 17.2709 2.04156 18.7812 3.90625 18.7812H19.0938C20.9584 18.7812 22.4688 17.2709 22.4688 15.4062V6.125H17.4062V0.21875H0.53125ZM2.21875 1.90625H15.7188V15.4062C15.7188 16.0222 15.9044 16.5959 16.1938 17.0938H3.90625C2.90219 17.0938 2.21875 16.4103 2.21875 15.4062V1.90625ZM3.90625 3.59375V7.8125H14.0312V3.59375H3.90625ZM5.59375 5.28125H12.3438V6.125H5.59375V5.28125ZM17.4062 7.8125H20.7812V15.4062C20.7812 16.4103 20.0978 17.0938 19.0938 17.0938C18.0897 17.0938 17.4062 16.4103 17.4062 15.4062V7.8125ZM3.90625 8.65625V10.3438H8.125V8.65625H3.90625ZM9.8125 8.65625V10.3438H14.0312V8.65625H9.8125ZM3.90625 11.1875V12.875H8.125V11.1875H3.90625ZM9.8125 11.1875V12.875H14.0312V11.1875H9.8125ZM3.90625 13.7188V15.4062H8.125V13.7188H3.90625ZM9.8125 13.7188V15.4062H14.0312V13.7188H9.8125Z" fill="black"/>
</svg>
